<svg xmlns="http://www.w3.org/2000/svg" xmlns:xlink="http://www.w3.org/1999/xlink" width="600" zoomAndPan="magnify" viewBox="0 0 450 338.999992" height="452" preserveAspectRatio="xMidYMid meet" version="1.0"><path fill="#424242" d="M 329.679688 230.332031 C 329.679688 230.332031 366.726562 133.742188 347.535156 119.011719 C 328.34375 104.28125 247.847656 110.230469 243.4375 115.492188 C 239.027344 120.753906 213.0625 237.023438 213.0625 237.023438 Z M 329.679688 230.332031 " fill-opacity="1" fill-rule="nonzero"/><path fill="#424242" d="M 213.007812 237.609375 C 212.925781 237.609375 212.847656 237.589844 212.773438 237.558594 C 212.699219 237.523438 212.632812 237.476562 212.578125 237.417969 C 212.523438 237.351562 212.484375 237.273438 212.464844 237.1875 C 212.445312 237.105469 212.445312 237.015625 212.46875 236.933594 C 213.523438 232.175781 238.554688 120.460938 243.011719 115.15625 C 245.453125 112.242188 266.941406 109.53125 289.933594 109.226562 C 303.433594 109.050781 336.160156 109.601562 347.882812 118.585938 C 356.039062 124.835938 355.523438 145.570312 346.355469 180.339844 C 339.605469 206.054688 330.300781 230.289062 330.210938 230.523438 C 330.171875 230.625 330.105469 230.714844 330.015625 230.78125 C 329.929688 230.84375 329.824219 230.878906 329.714844 230.882812 L 213.042969 237.628906 Z M 294.1875 110.320312 L 289.957031 110.320312 C 266.332031 110.632812 245.800781 113.546875 243.832031 115.851562 C 240.457031 119.910156 222.726562 196.058594 213.683594 236.425781 L 329.253906 229.769531 C 331.628906 223.484375 365.253906 133.316406 347.164062 119.449219 C 339.546875 113.613281 320.34375 110.320312 294.1875 110.320312 Z M 294.1875 110.320312 " fill-opacity="1" fill-rule="nonzero"/><path fill="#ffffff" d="M 179.257812 146.875 L 162.5625 202.886719 C 162.5625 202.886719 197 207.328125 197 206.054688 C 197 204.785156 203.75 144.425781 203.75 144.425781 Z M 179.257812 146.875 " fill-opacity="1" fill-rule="nonzero"/><path fill="#424242" d="M 195.265625 206.785156 C 189.449219 206.785156 172.945312 204.785156 162.496094 203.414062 C 162.414062 203.402344 162.335938 203.375 162.269531 203.332031 C 162.199219 203.285156 162.140625 203.230469 162.097656 203.160156 C 162.050781 203.09375 162.023438 203.015625 162.007812 202.933594 C 161.996094 202.855469 162 202.773438 162.023438 202.695312 L 178.71875 146.683594 C 178.75 146.578125 178.8125 146.480469 178.898438 146.410156 C 178.984375 146.335938 179.089844 146.292969 179.203125 146.28125 L 203.703125 143.828125 C 203.785156 143.820312 203.871094 143.832031 203.949219 143.859375 C 204.027344 143.890625 204.097656 143.9375 204.152344 143.996094 C 204.214844 144.054688 204.261719 144.125 204.289062 144.203125 C 204.316406 144.28125 204.324219 144.367188 204.3125 144.445312 C 201.984375 165.25 197.5625 204.886719 197.5625 206.023438 C 197.550781 206.207031 197.46875 206.378906 197.335938 206.503906 C 196.675781 206.753906 195.96875 206.851562 195.265625 206.785156 Z M 163.25 202.414062 C 175.21875 203.941406 193.804688 206.066406 196.414062 205.695312 C 196.839844 200.839844 202.320312 151.8125 203.074219 145.054688 L 179.652344 147.402344 Z M 163.25 202.414062 " fill-opacity="1" fill-rule="nonzero"/><path fill="#ffffff" d="M 147.609375 132.964844 C 147.757812 133.125 153.6875 131.539062 156.746094 135.214844 C 159.804688 138.890625 155.835938 142.175781 146.171875 140.277344 C 136.507812 138.375 147.609375 132.964844 147.609375 132.964844 Z M 147.609375 132.964844 " fill-opacity="1" fill-rule="nonzero"/><path fill="#424242" d="M 151.265625 141.386719 C 149.519531 141.371094 147.773438 141.1875 146.058594 140.835938 C 143.269531 140.285156 141.828125 139.386719 141.660156 138.070312 C 141.332031 135.53125 146.351562 132.953125 147.363281 132.449219 C 147.480469 132.410156 147.605469 132.410156 147.722656 132.449219 L 148.09375 132.449219 C 149.671875 132.257812 154.460938 131.652344 157.183594 134.910156 C 158.398438 136.351562 158.660156 137.824219 157.9375 139.058594 C 157.003906 140.535156 154.585938 141.386719 151.265625 141.386719 Z M 147.734375 133.515625 C 145.542969 134.640625 142.648438 136.621094 142.808594 137.867188 C 142.808594 138.285156 143.390625 139.070312 146.285156 139.644531 C 152.820312 140.925781 156.105469 139.734375 156.9375 138.328125 C 157.136719 137.851562 157.179688 137.324219 157.066406 136.820312 C 156.953125 136.316406 156.683594 135.863281 156.296875 135.519531 C 153.980469 132.753906 149.804688 133.269531 148.242188 133.472656 C 148.027344 133.515625 147.871094 133.515625 147.734375 133.515625 Z M 147.734375 133.515625 " fill-opacity="1" fill-rule="nonzero"/><path fill="#ffffff" d="M 132.75 121.214844 C 132.75 121.214844 131.535156 119.820312 132.300781 118.84375 C 132.472656 118.644531 132.6875 118.488281 132.933594 118.390625 C 133.175781 118.292969 133.441406 118.253906 133.703125 118.28125 C 133.964844 118.304688 134.21875 118.390625 134.4375 118.53125 C 134.660156 118.671875 134.84375 118.863281 134.976562 119.089844 C 134.976562 119.089844 133.066406 119.777344 132.75 121.214844 Z M 132.75 121.214844 " fill-opacity="1" fill-rule="nonzero"/><path fill="#424242" d="M 132.75 121.789062 C 132.667969 121.789062 132.585938 121.773438 132.511719 121.742188 C 132.433594 121.707031 132.367188 121.660156 132.3125 121.597656 C 131.75 120.945312 131.007812 119.550781 131.851562 118.496094 C 132.039062 118.246094 132.28125 118.046875 132.5625 117.90625 C 132.839844 117.769531 133.148438 117.695312 133.457031 117.695312 C 133.84375 117.703125 134.21875 117.796875 134.558594 117.976562 C 134.898438 118.152344 135.191406 118.410156 135.417969 118.71875 C 135.476562 118.789062 135.519531 118.878906 135.539062 118.96875 C 135.558594 119.0625 135.554688 119.15625 135.527344 119.246094 C 135.503906 119.335938 135.460938 119.421875 135.398438 119.488281 C 135.335938 119.558594 135.257812 119.609375 135.167969 119.640625 C 134.71875 119.800781 133.515625 120.429688 133.3125 121.339844 C 133.292969 121.445312 133.242188 121.539062 133.167969 121.617188 C 133.09375 121.695312 133 121.75 132.894531 121.777344 Z M 133.480469 118.855469 C 133.34375 118.855469 133.210938 118.886719 133.089844 118.949219 C 132.964844 119.007812 132.859375 119.097656 132.773438 119.203125 C 132.707031 119.328125 132.675781 119.464844 132.675781 119.601562 C 132.675781 119.742188 132.707031 119.878906 132.773438 120 C 133.113281 119.585938 133.523438 119.234375 133.988281 118.964844 C 133.832031 118.898438 133.660156 118.875 133.492188 118.898438 Z M 133.480469 118.855469 " fill-opacity="1" fill-rule="nonzero"/><path fill="#ffffff" d="M 135.40625 119.035156 C 134.734375 119.089844 134.105469 119.363281 133.605469 119.816406 C 133.109375 120.265625 132.777344 120.871094 132.660156 121.53125 L 156.792969 152.914062 C 156.941406 151.410156 157.589844 150 158.636719 148.910156 C 159.683594 147.816406 161.066406 147.109375 162.5625 146.898438 Z M 135.40625 119.035156 " fill-opacity="1" fill-rule="nonzero"/><path fill="#424242" d="M 156.78125 153.488281 C 156.691406 153.488281 156.609375 153.464844 156.53125 153.425781 C 156.453125 153.386719 156.382812 153.332031 156.328125 153.261719 L 132.199219 121.878906 C 132.144531 121.808594 132.105469 121.726562 132.089844 121.636719 C 132.070312 121.550781 132.074219 121.460938 132.097656 121.375 C 132.257812 120.59375 132.664062 119.886719 133.261719 119.359375 C 133.859375 118.832031 134.609375 118.511719 135.40625 118.449219 C 135.484375 118.449219 135.558594 118.464844 135.632812 118.496094 C 135.703125 118.527344 135.765625 118.574219 135.820312 118.628906 L 162.980469 146.492188 C 163.054688 146.566406 163.105469 146.664062 163.132812 146.765625 C 163.15625 146.871094 163.148438 146.976562 163.113281 147.078125 C 163.082031 147.179688 163.023438 147.269531 162.945312 147.339844 C 162.863281 147.40625 162.769531 147.453125 162.664062 147.472656 C 161.292969 147.660156 160.023438 148.300781 159.0625 149.296875 C 158.101562 150.292969 157.503906 151.582031 157.363281 152.960938 C 157.355469 153.074219 157.3125 153.1875 157.238281 153.277344 C 157.160156 153.367188 157.0625 153.433594 156.949219 153.464844 Z M 133.300781 121.417969 L 156.488281 151.566406 C 156.816406 150.378906 157.441406 149.296875 158.304688 148.417969 C 159.167969 147.542969 160.246094 146.902344 161.425781 146.5625 L 135.191406 119.640625 C 134.742188 119.734375 134.328125 119.949219 133.996094 120.261719 C 133.660156 120.574219 133.421875 120.976562 133.300781 121.417969 Z M 133.300781 121.417969 " fill-opacity="1" fill-rule="nonzero"/><path fill="#ffffff" d="M 156.792969 152.914062 L 165.027344 157.1875 L 166.050781 156.230469 L 162.5625 146.898438 C 162.5625 146.898438 156.148438 146.257812 156.792969 152.914062 Z M 156.792969 152.914062 " fill-opacity="1" fill-rule="nonzero"/><path fill="#424242" d="M 165.027344 157.761719 C 164.933594 157.761719 164.839844 157.738281 164.757812 157.691406 L 156.519531 153.421875 C 156.433594 153.375 156.359375 153.3125 156.304688 153.230469 C 156.25 153.148438 156.214844 153.054688 156.207031 152.957031 C 156.050781 152.066406 156.097656 151.144531 156.351562 150.273438 C 156.601562 149.398438 157.046875 148.597656 157.65625 147.921875 C 158.335938 147.339844 159.125 146.894531 159.976562 146.617188 C 160.828125 146.34375 161.726562 146.238281 162.617188 146.3125 C 162.730469 146.324219 162.835938 146.367188 162.921875 146.433594 C 163.007812 146.5 163.074219 146.59375 163.113281 146.695312 L 166.589844 156.027344 C 166.632812 156.136719 166.640625 156.253906 166.613281 156.367188 C 166.585938 156.476562 166.527344 156.582031 166.445312 156.660156 L 165.421875 157.613281 C 165.308594 157.710938 165.171875 157.761719 165.027344 157.761719 Z M 157.34375 152.542969 L 164.925781 156.476562 L 165.375 156.074219 L 162.15625 147.460938 C 160.8125 147.421875 159.5 147.878906 158.46875 148.742188 C 158.015625 149.257812 157.679688 149.863281 157.488281 150.519531 C 157.292969 151.175781 157.242188 151.867188 157.34375 152.542969 Z M 157.34375 152.542969 " fill-opacity="1" fill-rule="nonzero"/><path fill="#ffffff" d="M 165.027344 157.1875 L 166.601562 158.875 L 167.34375 158.03125 L 166.050781 156.230469 Z M 165.027344 157.1875 " fill-opacity="1" fill-rule="nonzero"/><path fill="#424242" d="M 166.601562 159.457031 C 166.523438 159.460938 166.445312 159.441406 166.371094 159.410156 C 166.300781 159.375 166.238281 159.328125 166.183594 159.265625 L 164.597656 157.582031 C 164.496094 157.464844 164.441406 157.316406 164.441406 157.164062 C 164.449219 157.011719 164.519531 156.863281 164.632812 156.757812 L 165.65625 155.804688 C 165.71875 155.75 165.789062 155.707031 165.867188 155.683594 C 165.945312 155.65625 166.027344 155.648438 166.109375 155.65625 C 166.191406 155.664062 166.269531 155.691406 166.339844 155.730469 C 166.414062 155.773438 166.472656 155.828125 166.523438 155.894531 L 167.816406 157.691406 C 167.898438 157.792969 167.945312 157.921875 167.945312 158.054688 C 167.945312 158.183594 167.898438 158.3125 167.816406 158.414062 L 167.074219 159.253906 C 167.023438 159.320312 166.957031 159.371094 166.882812 159.40625 C 166.808594 159.441406 166.726562 159.457031 166.644531 159.457031 Z M 165.847656 157.210938 L 166.589844 158.007812 L 165.949219 157.121094 Z M 165.847656 157.210938 " fill-opacity="1" fill-rule="nonzero"/><path fill="#ffffff" d="M 149.140625 155.375 C 150.46875 152.691406 153.796875 146.988281 154.5625 144.515625 C 156.679688 137.765625 144.292969 131.449219 140.289062 131.449219 C 136.28125 131.449219 127.914062 145.4375 127.914062 152.914062 C 127.914062 160.390625 155.644531 217.648438 155.644531 217.648438 L 182.25 205.484375 Z M 149.140625 155.375 " fill-opacity="1" fill-rule="nonzero"/><path fill="#424242" d="M 155.675781 218.234375 C 155.570312 218.234375 155.464844 218.203125 155.371094 218.144531 C 155.28125 218.089844 155.207031 218.003906 155.160156 217.90625 C 154.035156 215.570312 127.359375 160.425781 127.359375 152.914062 C 127.359375 145.402344 135.820312 130.863281 140.289062 130.863281 C 143.371094 130.863281 150.535156 134.148438 153.789062 138.511719 C 154.507812 139.347656 155.011719 140.351562 155.25 141.429688 C 155.492188 142.507812 155.464844 143.628906 155.171875 144.695312 C 154.097656 147.347656 152.84375 149.917969 151.414062 152.398438 C 150.816406 153.519531 150.289062 154.535156 149.859375 155.332031 L 182.8125 205.144531 C 182.859375 205.214844 182.890625 205.296875 182.902344 205.378906 C 182.917969 205.460938 182.914062 205.546875 182.890625 205.628906 C 182.867188 205.707031 182.828125 205.78125 182.773438 205.84375 C 182.71875 205.902344 182.652344 205.953125 182.578125 205.988281 L 155.957031 218.179688 C 155.875 218.226562 155.773438 218.25 155.675781 218.234375 Z M 140.289062 132.023438 C 136.765625 132.023438 128.53125 145.515625 128.53125 152.914062 C 128.53125 159.796875 153.203125 211.171875 155.949219 216.894531 L 181.429688 205.222656 L 148.65625 155.746094 C 148.609375 155.660156 148.582031 155.558594 148.582031 155.457031 C 148.582031 155.351562 148.609375 155.253906 148.65625 155.164062 C 149.085938 154.308594 149.703125 153.152344 150.378906 151.890625 C 151.769531 149.476562 152.996094 146.972656 154.046875 144.390625 C 154.285156 143.5 154.296875 142.5625 154.089844 141.664062 C 153.878906 140.765625 153.449219 139.933594 152.84375 139.242188 C 149.703125 134.980469 142.875 132.023438 140.289062 132.023438 Z M 140.289062 132.023438 " fill-opacity="1" fill-rule="nonzero"/><path fill="#df2b27" d="M 290.699219 166.710938 L 323.492188 158.355469 C 322.367188 156.769531 309.140625 114.796875 295.1875 107.925781 C 282.984375 99.828125 254.035156 94.429688 228.464844 96.265625 C 228.464844 96.265625 221.714844 96.015625 209.878906 100.707031 C 181.058594 112.152344 175.5 152.015625 175.5 152.015625 L 198 159.785156 C 198 159.785156 193.703125 211.339844 189.640625 238.292969 C 189.640625 238.292969 239.390625 248.019531 311.816406 236.046875 C 311.871094 236.023438 290.835938 174.335938 290.699219 166.710938 Z M 290.699219 166.710938 " fill-opacity="1" fill-rule="nonzero"/><path fill="#df2b27" d="M 288 109.082031 C 283.65625 113.582031 280.269531 118.976562 275.480469 123.21875 C 265.152344 132.347656 251.640625 139.578125 237.476562 138.703125 C 220.78125 137.667969 206.347656 126.265625 202.726562 109.65625 C 200.476562 99.242188 202.816406 89.574219 210.871094 82.21875 C 216.4375 77.136719 223.570312 74.035156 230.859375 72.097656 C 250.222656 66.914062 271.945312 69.671875 288.472656 81.027344 C 291.171875 82.6875 293.453125 84.953125 295.132812 87.640625 C 299.261719 95.117188 294.515625 102.808594 289.160156 107.945312 C 288.796875 108.296875 288.417969 108.6875 288 109.082031 Z M 288 109.082031 " fill-opacity="1" fill-rule="nonzero"/><path fill="#424242" d="M 231.042969 120.867188 C 230.871094 120.867188 227.765625 124.644531 227.609375 124.703125 C 229.375 131.359375 231.242188 140.027344 238.78125 140.882812 C 254.070312 142.625 256.386719 122.25 259.265625 112.636719 C 248.679688 115.605469 241.210938 116.796875 231.042969 120.867188 Z M 231.042969 120.867188 " fill-opacity="1" fill-rule="nonzero"/><path fill="#424242" d="M 240.570312 141.558594 C 239.953125 141.550781 239.335938 141.515625 238.726562 141.445312 C 231.199219 140.589844 229.074219 132.449219 227.351562 125.9375 L 227.058594 124.8125 C 227.03125 124.703125 227.039062 124.585938 227.078125 124.480469 C 227.121094 124.375 227.191406 124.285156 227.285156 124.21875 C 227.464844 124.050781 228.285156 123.09375 228.882812 122.394531 C 230.625 120.394531 230.648438 120.382812 230.828125 120.304688 C 237.054688 117.898438 243.445312 115.941406 249.953125 114.445312 C 252.820312 113.726562 255.78125 112.984375 259.066406 112.0625 C 259.160156 112.035156 259.265625 112.035156 259.359375 112.058594 C 259.457031 112.085938 259.546875 112.136719 259.617188 112.210938 C 259.683594 112.28125 259.730469 112.371094 259.753906 112.46875 C 259.777344 112.5625 259.777344 112.664062 259.75 112.757812 C 259.324219 114.1875 258.90625 115.875 258.457031 117.664062 C 256.128906 127.289062 252.5625 141.546875 240.570312 141.558594 Z M 228.195312 124.882812 L 228.398438 125.65625 C 230.121094 132.179688 232.054688 139.566406 238.816406 140.277344 C 251.335938 141.703125 254.835938 127.636719 257.398438 117.359375 C 257.75 115.953125 258.085938 114.605469 258.421875 113.390625 C 255.511719 114.1875 252.796875 114.863281 250.246094 115.515625 C 243.796875 116.976562 237.464844 118.910156 231.300781 121.292969 C 231.074219 121.519531 230.289062 122.417969 229.703125 123.105469 C 228.914062 124.117188 228.476562 124.613281 228.230469 124.882812 Z M 228.195312 124.882812 " fill-opacity="1" fill-rule="nonzero"/><path fill="#ffffff" d="M 245.847656 42.4375 C 243.597656 42.347656 242.15625 43.324219 240.222656 44.023438 C 236.453125 45.347656 234.699219 42.199219 231.457031 40.523438 C 226.355469 37.875 220.496094 37.070312 214.867188 38.246094 C 209.242188 39.425781 204.195312 42.515625 200.585938 46.988281 C 198.34375 49.648438 196.886719 52.882812 196.390625 56.324219 C 195.917969 60.214844 197.011719 64.195312 196.335938 68.039062 C 195.921875 70.25 194.953125 72.316406 193.519531 74.046875 C 192.089844 75.777344 190.238281 77.117188 188.144531 77.933594 C 191.746094 78.214844 195.367188 77.871094 198.855469 76.921875 C 197.851562 78.113281 196.605469 79.074219 195.203125 79.746094 C 193.796875 80.414062 192.265625 80.773438 190.710938 80.804688 C 194.296875 83.558594 198.707031 85.035156 203.230469 84.996094 L 195.300781 86.851562 C 202.050781 91.179688 210.273438 92.472656 218.226562 92.113281 C 234.066406 91.292969 260.59375 84.816406 260.132812 64.308594 C 259.875 56.445312 255.554688 42.886719 245.847656 42.4375 Z M 245.847656 42.4375 " fill-opacity="1" fill-rule="nonzero"/><path fill="#424242" d="M 215.503906 92.777344 C 209.441406 92.777344 201.679688 91.652344 194.953125 87.359375 C 194.859375 87.296875 194.785156 87.210938 194.742188 87.109375 C 194.699219 87.007812 194.6875 86.894531 194.703125 86.785156 C 194.726562 86.675781 194.78125 86.578125 194.855469 86.5 C 194.929688 86.421875 195.027344 86.363281 195.132812 86.335938 L 199.542969 85.3125 C 196.183594 84.742188 193.019531 83.359375 190.316406 81.285156 C 190.222656 81.214844 190.152344 81.117188 190.117188 81.003906 C 190.082031 80.890625 190.082031 80.769531 190.121094 80.660156 C 190.15625 80.546875 190.230469 80.449219 190.324219 80.378906 C 190.421875 80.3125 190.535156 80.273438 190.652344 80.273438 C 192.964844 80.238281 195.195312 79.425781 196.988281 77.96875 C 194.050781 78.578125 191.042969 78.765625 188.054688 78.53125 C 187.929688 78.519531 187.808594 78.464844 187.71875 78.378906 C 187.625 78.289062 187.566406 78.171875 187.546875 78.046875 C 187.527344 77.921875 187.554688 77.789062 187.621094 77.679688 C 187.683594 77.566406 187.789062 77.484375 187.910156 77.441406 C 189.921875 76.667969 191.699219 75.390625 193.078125 73.738281 C 194.457031 72.082031 195.386719 70.101562 195.785156 67.984375 C 196.054688 65.960938 196.078125 63.914062 195.851562 61.890625 C 195.675781 60.019531 195.675781 58.136719 195.851562 56.265625 C 196.363281 52.71875 197.859375 49.382812 200.171875 46.640625 C 203.859375 42.066406 209.019531 38.90625 214.773438 37.703125 C 220.53125 36.5 226.523438 37.328125 231.738281 40.039062 C 232.695312 40.5625 233.609375 41.167969 234.460938 41.851562 C 236.285156 43.234375 237.722656 44.324219 240.085938 43.503906 C 240.59375 43.324219 241.066406 43.121094 241.527344 42.929688 C 242.898438 42.234375 244.417969 41.875 245.957031 41.886719 C 255.703125 42.3125 260.582031 55.511719 260.742188 64.308594 C 260.945312 73.628906 255.847656 80.972656 245.585938 86.109375 C 235.328125 91.25 223.085938 92.441406 218.304688 92.6875 C 217.359375 92.753906 216.449219 92.777344 215.503906 92.777344 Z M 196.71875 87.15625 C 203.984375 91.371094 212.320312 91.933594 218.160156 91.652344 C 222.839844 91.40625 234.808594 90.292969 244.992188 85.1875 C 254.835938 80.261719 259.71875 73.28125 259.527344 64.417969 C 259.335938 56.054688 254.847656 43.492188 245.824219 43.054688 C 244.453125 43.0625 243.101562 43.390625 241.875 44.011719 C 241.390625 44.210938 240.894531 44.425781 240.367188 44.605469 C 237.453125 45.628906 235.632812 44.246094 233.707031 42.785156 C 232.90625 42.144531 232.054688 41.574219 231.152344 41.085938 C 226.171875 38.488281 220.441406 37.695312 214.9375 38.847656 C 209.4375 39.996094 204.503906 43.019531 200.980469 47.394531 C 198.8125 49.957031 197.398438 53.070312 196.898438 56.390625 C 196.730469 58.183594 196.730469 59.984375 196.898438 61.777344 C 197.125 63.894531 197.097656 66.03125 196.808594 68.140625 C 196.453125 70.066406 195.6875 71.894531 194.570312 73.503906 C 193.449219 75.109375 192 76.460938 190.316406 77.464844 C 193.121094 77.460938 195.914062 77.082031 198.617188 76.339844 C 198.734375 76.304688 198.859375 76.308594 198.972656 76.351562 C 199.085938 76.394531 199.183594 76.472656 199.25 76.574219 C 199.316406 76.671875 199.355469 76.789062 199.355469 76.90625 C 199.355469 77.023438 199.316406 77.140625 199.25 77.238281 C 197.46875 79.355469 194.984375 80.761719 192.25 81.195312 C 195.503906 83.316406 199.3125 84.425781 203.199219 84.390625 C 203.335938 84.386719 203.472656 84.433594 203.578125 84.527344 C 203.679688 84.617188 203.746094 84.746094 203.761719 84.882812 C 203.777344 85.023438 203.746094 85.160156 203.664062 85.277344 C 203.585938 85.390625 203.46875 85.472656 203.332031 85.503906 Z M 196.71875 87.15625 " fill-opacity="1" fill-rule="nonzero"/><path fill="#ffffff" d="M 226.484375 105.339844 L 227.609375 124.703125 C 227.609375 124.703125 236.464844 134.820312 247.859375 128.601562 C 259.257812 122.386719 258.816406 112.523438 258.816406 112.523438 L 251.335938 76.171875 C 251.335938 76.171875 240.996094 73.785156 238.363281 53.433594 C 229.546875 60.414062 219.003906 64.882812 207.855469 66.375 C 207.855469 66.375 208.058594 89.148438 212.074219 98.199219 C 216.089844 107.25 226.484375 105.339844 226.484375 105.339844 Z M 226.484375 105.339844 " fill-opacity="1" fill-rule="nonzero"/><path fill="#424242" d="M 240.378906 131.179688 C 232.640625 131.179688 227.25 125.164062 227.183594 125.070312 C 227.097656 124.980469 227.050781 124.859375 227.046875 124.734375 L 225.921875 105.96875 C 223.546875 106.203125 215.089844 106.429688 211.523438 98.390625 C 207.507812 89.394531 207.269531 67.273438 207.257812 66.34375 C 207.261719 66.207031 207.308594 66.074219 207.398438 65.972656 C 207.484375 65.871094 207.609375 65.800781 207.742188 65.78125 C 218.773438 64.277344 229.207031 59.859375 237.960938 52.984375 C 238.039062 52.914062 238.132812 52.871094 238.234375 52.851562 C 238.335938 52.835938 238.4375 52.84375 238.535156 52.882812 C 238.628906 52.917969 238.710938 52.980469 238.773438 53.058594 C 238.835938 53.136719 238.878906 53.230469 238.894531 53.332031 C 240.222656 63.632812 243.574219 69.128906 246.148438 71.941406 C 247.542969 73.621094 249.371094 74.882812 251.4375 75.585938 C 251.539062 75.613281 251.632812 75.667969 251.707031 75.746094 C 251.78125 75.824219 251.832031 75.917969 251.855469 76.023438 L 259.347656 112.410156 C 259.347656 112.601562 259.683594 122.777344 248.097656 129.097656 C 245.742188 130.433594 243.085938 131.148438 240.378906 131.179688 Z M 228.148438 124.433594 C 229.273438 125.65625 237.328125 133.6875 247.601562 128.074219 C 258.535156 122.09375 258.265625 112.589844 258.265625 112.5 L 250.851562 76.519531 C 248.984375 75.898438 240.523438 72.167969 237.949219 54.398438 C 229.300781 60.929688 219.148438 65.183594 208.429688 66.769531 C 208.429688 70.144531 208.992188 89.777344 212.578125 97.882812 C 216.371094 106.40625 225.980469 104.796875 226.382812 104.730469 C 226.460938 104.714844 226.542969 104.71875 226.621094 104.734375 C 226.695312 104.75 226.769531 104.785156 226.832031 104.832031 C 226.894531 104.882812 226.945312 104.949219 226.980469 105.019531 C 227.019531 105.089844 227.042969 105.167969 227.046875 105.25 Z M 228.148438 124.433594 " fill-opacity="1" fill-rule="nonzero"/><path fill="#ffffff" d="M 247.117188 86.355469 C 249.761719 86.753906 252.453125 86.09375 254.609375 84.511719 C 256.066406 83.359375 257.203125 81.855469 257.90625 80.136719 C 258.613281 78.421875 258.863281 76.550781 258.636719 74.707031 C 258.570312 73.332031 258.183594 71.988281 257.511719 70.785156 C 257.183594 70.179688 256.730469 69.65625 256.179688 69.246094 C 255.632812 68.832031 255 68.546875 254.328125 68.398438 C 252.667969 68.296875 251.015625 68.734375 249.625 69.648438 C 247.445312 70.773438 247.375 72.019531 246.183594 73.863281 C 246.320312 73.695312 246.421875 73.222656 246.554688 73.054688 " fill-opacity="1" fill-rule="nonzero"/><path fill="#424242" d="M 248.625 87.042969 C 248.089844 87.042969 247.554688 87 247.027344 86.917969 C 246.878906 86.894531 246.746094 86.8125 246.65625 86.691406 C 246.570312 86.570312 246.53125 86.417969 246.554688 86.265625 C 246.566406 86.195312 246.589844 86.125 246.628906 86.0625 C 246.667969 86 246.71875 85.945312 246.777344 85.902344 C 246.835938 85.859375 246.90625 85.828125 246.976562 85.8125 C 247.050781 85.796875 247.125 85.792969 247.195312 85.808594 C 249.6875 86.171875 252.222656 85.539062 254.25 84.042969 C 255.628906 82.945312 256.699219 81.511719 257.363281 79.882812 C 258.027344 78.25 258.261719 76.476562 258.042969 74.730469 C 257.996094 73.441406 257.652344 72.179688 257.039062 71.042969 C 256.75 70.515625 256.351562 70.058594 255.871094 69.695312 C 255.386719 69.335938 254.835938 69.082031 254.25 68.949219 C 252.855469 68.703125 251.460938 69.34375 249.90625 70.144531 C 248.839844 70.660156 248.007812 71.558594 247.566406 72.660156 C 247.332031 73.089844 247.074219 73.574219 246.722656 74.101562 C 246.699219 74.148438 246.667969 74.1875 246.632812 74.222656 C 246.542969 74.335938 246.414062 74.410156 246.269531 74.425781 C 246.125 74.441406 245.984375 74.402344 245.867188 74.316406 C 245.75 74.230469 245.667969 74.101562 245.644531 73.960938 C 245.617188 73.816406 245.652344 73.667969 245.734375 73.550781 C 245.734375 73.550781 245.734375 73.402344 245.8125 73.324219 C 245.878906 73.121094 245.972656 72.929688 246.09375 72.75 C 246.152344 72.683594 246.226562 72.628906 246.308594 72.59375 L 246.519531 72.1875 C 247.078125 70.886719 248.082031 69.824219 249.355469 69.199219 C 250.683594 68.511719 252.515625 67.566406 254.394531 67.894531 C 255.160156 68.046875 255.882812 68.359375 256.511719 68.820312 C 257.140625 69.277344 257.664062 69.867188 258.042969 70.546875 C 258.730469 71.832031 259.117188 73.261719 259.167969 74.71875 C 259.402344 76.65625 259.136719 78.621094 258.390625 80.421875 C 257.648438 82.226562 256.449219 83.804688 254.914062 85.007812 C 253.085938 86.335938 250.882812 87.050781 248.625 87.042969 Z M 248.625 87.042969 " fill-opacity="1" fill-rule="nonzero"/><path fill="#424242" d="M 227.070312 115.527344 C 229.285156 115.367188 231.429688 114.667969 233.3125 113.492188 C 235.195312 112.316406 236.765625 110.699219 237.882812 108.777344 C 241.851562 102.15625 240.265625 97.917969 240.265625 97.917969 C 240.265625 97.917969 234.910156 104.742188 226.484375 105.292969 Z M 227.070312 115.527344 " fill-opacity="1" fill-rule="nonzero"/><path fill="#424242" d="M 227.070312 116.078125 C 226.925781 116.078125 226.789062 116.023438 226.6875 115.921875 C 226.585938 115.824219 226.523438 115.691406 226.519531 115.546875 L 225.921875 105.429688 C 225.917969 105.355469 225.929688 105.28125 225.953125 105.210938 C 225.976562 105.140625 226.015625 105.074219 226.0625 105.019531 C 226.113281 104.964844 226.171875 104.917969 226.238281 104.886719 C 226.304688 104.855469 226.378906 104.835938 226.453125 104.832031 C 234.515625 104.316406 239.769531 97.75 239.828125 97.679688 C 239.890625 97.601562 239.96875 97.539062 240.0625 97.503906 C 240.15625 97.464844 240.257812 97.453125 240.355469 97.46875 C 240.453125 97.484375 240.546875 97.527344 240.625 97.589844 C 240.699219 97.652344 240.757812 97.734375 240.796875 97.828125 C 240.863281 98.007812 242.425781 102.390625 238.355469 109.171875 C 237.195312 111.167969 235.5625 112.84375 233.601562 114.058594 C 231.636719 115.273438 229.40625 115.984375 227.105469 116.132812 Z M 227.070312 105.84375 L 227.597656 114.917969 C 229.609375 114.671875 231.535156 113.96875 233.230469 112.859375 C 234.925781 111.753906 236.34375 110.273438 237.375 108.53125 C 240.0625 104.035156 240.132812 100.75 239.929688 99.175781 C 236.558594 102.839844 232.007812 105.203125 227.070312 105.84375 Z M 227.070312 105.84375 " fill-opacity="1" fill-rule="nonzero"/><path fill="#ffffff" d="M 225 74.5625 C 225 74.5625 220.78125 85.671875 222.695312 87 C 224.605469 88.324219 228.644531 86.210938 228.644531 86.210938 " fill-opacity="1" fill-rule="nonzero"/><path fill="#424242" d="M 224.359375 88 C 223.65625 88.03125 222.957031 87.84375 222.367188 87.460938 C 220.253906 85.996094 223.492188 77.070312 224.460938 74.359375 C 224.511719 74.222656 224.617188 74.109375 224.753906 74.046875 C 224.886719 73.988281 225.042969 73.980469 225.179688 74.03125 C 225.25 74.058594 225.3125 74.097656 225.367188 74.148438 C 225.421875 74.199219 225.464844 74.261719 225.496094 74.332031 C 225.527344 74.398438 225.542969 74.472656 225.542969 74.546875 C 225.546875 74.621094 225.535156 74.695312 225.507812 74.765625 C 223.546875 79.925781 222.132812 85.894531 223.007812 86.527344 C 224.347656 87.449219 227.339844 86.257812 228.375 85.714844 C 228.507812 85.648438 228.664062 85.636719 228.804688 85.679688 C 228.949219 85.722656 229.066406 85.820312 229.140625 85.953125 C 229.207031 86.085938 229.21875 86.238281 229.171875 86.378906 C 229.125 86.523438 229.023438 86.636719 228.890625 86.707031 C 227.492188 87.457031 225.945312 87.898438 224.359375 88 Z M 224.359375 88 " fill-opacity="1" fill-rule="nonzero"/><path fill="#424242" d="M 233.296875 74.28125 C 234.15625 74.003906 234.53125 72.796875 234.140625 71.585938 C 233.75 70.375 232.738281 69.617188 231.878906 69.894531 C 231.023438 70.171875 230.644531 71.378906 231.035156 72.589844 C 231.429688 73.800781 232.441406 74.558594 233.296875 74.28125 Z M 233.296875 74.28125 " fill-opacity="1" fill-rule="nonzero"/><path fill="#424242" d="M 217.558594 77.960938 C 218.460938 77.945312 219.175781 76.90625 219.160156 75.632812 C 219.140625 74.359375 218.398438 73.335938 217.496094 73.347656 C 216.59375 73.363281 215.878906 74.402344 215.898438 75.675781 C 215.914062 76.949219 216.65625 77.972656 217.558594 77.960938 Z M 217.558594 77.960938 " fill-opacity="1" fill-rule="nonzero"/><path fill="#424242" d="M 226.339844 101.269531 C 225.257812 101.296875 224.195312 100.984375 223.300781 100.378906 C 219.757812 97.792969 219.5 92.082031 219.488281 91.832031 C 219.484375 91.699219 219.527344 91.570312 219.609375 91.464844 C 219.691406 91.359375 219.808594 91.289062 219.9375 91.261719 C 234.496094 88.078125 234.652344 88.191406 234.910156 88.382812 C 234.976562 88.429688 235.03125 88.492188 235.070312 88.558594 C 235.109375 88.628906 235.136719 88.707031 235.148438 88.785156 C 235.375 91.054688 235.0625 93.339844 234.234375 95.464844 C 233.742188 96.769531 232.957031 97.941406 231.941406 98.894531 C 230.925781 99.847656 229.707031 100.5625 228.375 100.976562 C 227.714844 101.167969 227.027344 101.265625 226.339844 101.269531 Z M 220.65625 92.273438 C 220.792969 93.632812 221.398438 97.613281 223.941406 99.457031 C 224.546875 99.828125 225.226562 100.0625 225.933594 100.140625 C 226.640625 100.21875 227.355469 100.136719 228.027344 99.90625 C 229.199219 99.542969 230.273438 98.917969 231.171875 98.078125 C 232.066406 97.238281 232.761719 96.207031 233.203125 95.0625 C 233.898438 93.273438 234.191406 91.351562 234.054688 89.4375 C 232.121094 89.785156 225.292969 91.25 220.65625 92.261719 Z M 220.65625 92.273438 " fill-opacity="1" fill-rule="nonzero"/><path fill="#424242" d="M 233.71875 95.285156 C 231.558594 100.503906 226.148438 101.75 223.59375 99.941406 C 224.167969 97.949219 225.214844 95.882812 227.160156 95.128906 C 229.296875 94.398438 231.621094 94.457031 233.71875 95.285156 Z M 233.71875 95.285156 " fill-opacity="1" fill-rule="nonzero"/><path fill="#424242" d="M 226.339844 101.257812 C 225.261719 101.285156 224.199219 100.980469 223.300781 100.378906 C 223.210938 100.3125 223.140625 100.21875 223.101562 100.109375 C 223.066406 100 223.066406 99.882812 223.097656 99.773438 C 223.863281 97.027344 225.179688 95.273438 226.992188 94.589844 C 229.242188 93.824219 231.691406 93.875 233.910156 94.734375 C 233.980469 94.761719 234.046875 94.800781 234.105469 94.851562 C 234.160156 94.90625 234.207031 94.96875 234.234375 95.039062 C 234.292969 95.179688 234.292969 95.335938 234.234375 95.476562 C 233.738281 96.777344 232.953125 97.945312 231.9375 98.898438 C 230.921875 99.851562 229.703125 100.558594 228.375 100.976562 C 227.710938 101.164062 227.027344 101.257812 226.339844 101.257812 Z M 224.292969 99.671875 C 225.460938 100.222656 226.800781 100.304688 228.027344 99.894531 C 229.105469 99.566406 230.101562 99.011719 230.949219 98.273438 C 231.796875 97.535156 232.480469 96.621094 232.953125 95.601562 C 231.148438 95 229.199219 95 227.394531 95.601562 C 226.011719 96.164062 225 97.535156 224.292969 99.671875 Z M 224.292969 99.671875 " fill-opacity="1" fill-rule="nonzero"/><path fill="#424242" d="M 207.328125 83.535156 C 206.558594 83.535156 205.808594 83.273438 205.210938 82.789062 C 204.609375 82.304688 204.195312 81.632812 204.03125 80.882812 L 202.847656 75.515625 C 202.660156 74.644531 202.824219 73.730469 203.304688 72.976562 C 203.789062 72.226562 204.550781 71.695312 205.425781 71.503906 L 217.96875 68.75 C 218.402344 68.652344 218.851562 68.644531 219.289062 68.71875 C 219.726562 68.796875 220.144531 68.960938 220.515625 69.199219 C 220.890625 69.4375 221.214844 69.75 221.46875 70.113281 C 221.722656 70.480469 221.902344 70.890625 221.996094 71.324219 L 223.121094 76.6875 C 223.304688 77.550781 223.140625 78.449219 222.667969 79.191406 C 222.195312 79.9375 221.449219 80.464844 220.589844 80.667969 L 208.046875 83.410156 C 207.8125 83.480469 207.570312 83.523438 207.328125 83.535156 Z M 218.699219 69.839844 C 218.539062 69.824219 218.378906 69.824219 218.214844 69.839844 L 205.683594 72.582031 C 205.113281 72.714844 204.613281 73.066406 204.296875 73.558594 C 203.980469 74.050781 203.867188 74.652344 203.984375 75.226562 L 205.167969 80.667969 C 205.300781 81.234375 205.652344 81.726562 206.140625 82.042969 C 206.632812 82.359375 207.226562 82.46875 207.796875 82.355469 L 220.34375 79.542969 C 220.910156 79.410156 221.402344 79.058594 221.71875 78.570312 C 222.03125 78.078125 222.144531 77.484375 222.03125 76.910156 L 220.90625 71.546875 C 220.792969 71.058594 220.519531 70.621094 220.125 70.304688 C 219.734375 69.988281 219.25 69.8125 218.746094 69.804688 Z M 218.699219 69.839844 " fill-opacity="1" fill-rule="nonzero"/><path fill="#424242" d="M 229.679688 78.644531 C 229.035156 78.640625 228.402344 78.453125 227.859375 78.101562 C 227.105469 77.621094 226.574219 76.863281 226.382812 75.988281 L 225.257812 70.625 C 225.066406 69.753906 225.226562 68.839844 225.707031 68.085938 C 225.949219 67.710938 226.257812 67.386719 226.625 67.128906 C 226.988281 66.875 227.398438 66.695312 227.835938 66.601562 L 240.367188 63.855469 C 240.800781 63.761719 241.25 63.75 241.6875 63.828125 C 242.125 63.90625 242.542969 64.070312 242.914062 64.308594 C 243.289062 64.546875 243.613281 64.859375 243.867188 65.222656 C 244.121094 65.585938 244.300781 66 244.394531 66.433594 L 245.519531 71.796875 C 245.714844 72.664062 245.558594 73.574219 245.089844 74.328125 C 244.617188 75.082031 243.867188 75.617188 243 75.820312 L 230.46875 78.566406 C 230.207031 78.617188 229.945312 78.644531 229.679688 78.644531 Z M 241.054688 64.925781 C 240.890625 64.925781 240.730469 64.945312 240.570312 64.980469 L 228.039062 67.734375 C 227.753906 67.796875 227.480469 67.914062 227.242188 68.078125 C 227.003906 68.246094 226.796875 68.457031 226.640625 68.703125 C 226.324219 69.199219 226.214844 69.800781 226.339844 70.378906 L 227.519531 75.742188 C 227.652344 76.308594 228.003906 76.804688 228.496094 77.117188 C 228.984375 77.433594 229.582031 77.542969 230.152344 77.429688 L 242.695312 74.683594 C 243.269531 74.558594 243.769531 74.210938 244.089844 73.71875 C 244.40625 73.21875 244.507812 72.617188 244.382812 72.042969 L 243.257812 66.679688 C 243.144531 66.179688 242.867188 65.734375 242.464844 65.414062 C 242.0625 65.09375 241.566406 64.921875 241.054688 64.925781 Z M 241.054688 64.925781 " fill-opacity="1" fill-rule="nonzero"/><path fill="#424242" d="M 221.421875 72.03125 C 221.320312 72.035156 221.21875 72.007812 221.128906 71.953125 C 221 71.875 220.902344 71.75 220.863281 71.601562 C 220.824219 71.457031 220.84375 71.300781 220.917969 71.164062 C 221.445312 70.253906 223.167969 68.828125 225.988281 69.960938 C 226.140625 70.019531 226.261719 70.132812 226.324219 70.277344 C 226.390625 70.425781 226.394531 70.589844 226.339844 70.738281 C 226.28125 70.886719 226.167969 71.007812 226.023438 71.074219 C 225.878906 71.140625 225.710938 71.144531 225.5625 71.085938 C 223.042969 70.074219 222.03125 71.617188 221.929688 71.796875 C 221.871094 71.875 221.792969 71.9375 221.707031 71.976562 C 221.617188 72.019531 221.519531 72.035156 221.421875 72.03125 Z M 221.421875 72.03125 " fill-opacity="1" fill-rule="nonzero"/><path fill="#ffffff" d="M 109.351562 221.71875 L 340.648438 221.71875 L 377.765625 289.46875 L 72.238281 289.46875 Z M 109.351562 221.71875 " fill-opacity="1" fill-rule="nonzero"/><path fill="#d1d3d4" d="M 377.765625 290.03125 L 72.234375 290.03125 C 72.140625 290.03125 72.042969 290.003906 71.960938 289.957031 C 71.875 289.910156 71.804688 289.84375 71.753906 289.761719 C 71.707031 289.675781 71.679688 289.578125 71.679688 289.480469 C 71.679688 289.382812 71.707031 289.285156 71.753906 289.199219 L 108.878906 221.449219 C 108.925781 221.359375 108.996094 221.285156 109.082031 221.234375 C 109.171875 221.183594 109.269531 221.15625 109.371094 221.15625 L 340.640625 221.15625 C 340.738281 221.15625 340.839844 221.183594 340.925781 221.234375 C 341.015625 221.285156 341.085938 221.359375 341.132812 221.449219 L 378.257812 289.199219 C 378.304688 289.285156 378.332031 289.382812 378.332031 289.480469 C 378.332031 289.578125 378.304688 289.675781 378.257812 289.761719 C 378.207031 289.84375 378.132812 289.914062 378.046875 289.960938 C 377.960938 290.007812 377.863281 290.03125 377.765625 290.03125 Z M 73.191406 288.90625 L 376.808594 288.90625 L 340.3125 222.28125 L 109.6875 222.28125 Z M 73.191406 288.90625 " fill-opacity="1" fill-rule="nonzero"/><path fill="#ffffff" d="M 112.9375 178.011719 L 113.433594 175.875 C 114.558594 173.738281 115.808594 172.300781 118.710938 172.300781 L 228.8125 172.300781 C 230.144531 172.300781 231.441406 172.734375 232.503906 173.535156 C 233.570312 174.332031 234.347656 175.453125 234.71875 176.730469 L 252.617188 238.191406 C 253.082031 239.511719 253.023438 240.957031 252.457031 242.230469 C 251.890625 243.507812 250.859375 244.523438 249.570312 245.0625 L 247.625 245.523438 Z M 112.9375 178.011719 " fill-opacity="1" fill-rule="nonzero"/><path fill="#424242" d="M 247.625 246.085938 C 247.539062 246.085938 247.453125 246.066406 247.375 246.03125 L 112.691406 178.496094 C 112.578125 178.441406 112.488281 178.347656 112.433594 178.234375 C 112.378906 178.117188 112.367188 177.988281 112.398438 177.867188 L 112.894531 175.730469 C 112.890625 175.679688 112.890625 175.632812 112.894531 175.582031 C 114.019531 173.546875 115.3125 171.714844 118.664062 171.714844 L 228.769531 171.714844 C 230.222656 171.722656 231.632812 172.195312 232.792969 173.066406 C 233.953125 173.9375 234.804688 175.160156 235.214844 176.550781 L 253.125 238.09375 C 253.628906 239.542969 253.558594 241.132812 252.933594 242.539062 C 252.304688 243.941406 251.167969 245.054688 249.75 245.648438 L 247.734375 246.132812 Z M 113.625 177.707031 L 247.734375 244.929688 L 249.480469 244.523438 C 252.191406 243.46875 252.753906 240.578125 252.113281 238.351562 L 234.214844 176.886719 C 233.871094 175.730469 233.164062 174.710938 232.195312 173.988281 C 231.230469 173.261719 230.054688 172.867188 228.847656 172.863281 L 118.710938 172.863281 C 116.222656 172.863281 115.15625 173.988281 113.960938 176.078125 Z M 113.625 177.707031 " fill-opacity="1" fill-rule="nonzero"/><path fill="#424242" d="M 247.625 245.523438 L 135.269531 245.523438 C 134.507812 245.515625 133.765625 245.261719 133.160156 244.800781 C 132.550781 244.339844 132.109375 243.695312 131.894531 242.960938 L 112.984375 178.011719 C 112.914062 177.761719 112.902344 177.5 112.945312 177.246094 C 112.996094 176.992188 113.101562 176.75 113.257812 176.542969 C 113.410156 176.335938 113.613281 176.167969 113.847656 176.054688 C 114.078125 175.9375 114.332031 175.875 114.59375 175.875 L 229.949219 175.875 L 249.492188 243.039062 C 249.578125 243.328125 249.59375 243.636719 249.542969 243.933594 C 249.488281 244.230469 249.367188 244.511719 249.183594 244.753906 C 249.003906 244.996094 248.765625 245.191406 248.496094 245.324219 C 248.226562 245.457031 247.925781 245.527344 247.625 245.523438 Z M 247.625 245.523438 " fill-opacity="1" fill-rule="nonzero"/><path fill="#424242" d="M 247.625 246.085938 L 135.269531 246.085938 C 134.378906 246.082031 133.511719 245.792969 132.796875 245.257812 C 132.085938 244.722656 131.5625 243.972656 131.308594 243.117188 L 112.398438 178.167969 C 112.308594 177.835938 112.292969 177.488281 112.359375 177.152344 C 112.421875 176.8125 112.566406 176.492188 112.773438 176.21875 C 112.980469 175.941406 113.25 175.71875 113.554688 175.566406 C 113.863281 175.410156 114.203125 175.328125 114.546875 175.324219 L 229.949219 175.324219 C 230.070312 175.324219 230.183594 175.359375 230.28125 175.433594 C 230.375 175.503906 230.445312 175.601562 230.480469 175.71875 L 250.03125 242.882812 C 250.140625 243.253906 250.160156 243.648438 250.089844 244.03125 C 250.019531 244.414062 249.859375 244.773438 249.628906 245.085938 C 249.394531 245.394531 249.089844 245.648438 248.742188 245.820312 C 248.394531 245.996094 248.011719 246.085938 247.625 246.085938 Z M 114.546875 176.4375 C 114.375 176.441406 114.207031 176.484375 114.054688 176.558594 C 113.902344 176.636719 113.769531 176.75 113.667969 176.886719 C 113.5625 177.023438 113.492188 177.179688 113.460938 177.347656 C 113.429688 177.515625 113.433594 177.6875 113.480469 177.855469 L 132.378906 242.804688 C 132.566406 243.425781 132.945312 243.972656 133.46875 244.359375 C 133.988281 244.75 134.621094 244.960938 135.269531 244.960938 L 247.625 244.960938 C 247.839844 244.964844 248.054688 244.914062 248.25 244.820312 C 248.445312 244.722656 248.617188 244.582031 248.75 244.410156 C 248.875 244.238281 248.960938 244.039062 249 243.828125 C 249.035156 243.617188 249.023438 243.402344 248.960938 243.195312 L 229.5 176.4375 Z M 114.546875 176.4375 " fill-opacity="1" fill-rule="nonzero"/><path fill="#ffffff" d="M 228.78125 217.851562 L 221.953125 246.875 C 221.589844 248.425781 220.710938 249.8125 219.460938 250.804688 C 218.210938 251.792969 216.660156 252.332031 215.066406 252.328125 L 144 252.328125 C 142.933594 252.328125 141.878906 252.085938 140.921875 251.621094 C 139.960938 251.15625 139.117188 250.480469 138.457031 249.644531 C 137.792969 248.808594 137.328125 247.835938 137.097656 246.792969 C 136.863281 245.753906 136.871094 244.671875 137.113281 243.636719 L 143.132812 217.851562 L 137.25 217.851562 L 131.488281 242.308594 C 131.054688 244.191406 131.050781 246.148438 131.476562 248.035156 C 131.902344 249.917969 132.75 251.683594 133.953125 253.195312 C 135.15625 254.710938 136.6875 255.933594 138.425781 256.773438 C 140.167969 257.613281 142.078125 258.050781 144.011719 258.050781 L 215.121094 258.050781 C 218.003906 258.050781 220.800781 257.078125 223.0625 255.292969 C 225.324219 253.507812 226.917969 251.015625 227.585938 248.210938 L 234.71875 217.851562 Z M 228.78125 217.851562 " fill-opacity="1" fill-rule="nonzero"/><path fill="#424242" d="M 215.066406 258.691406 L 144 258.691406 C 141.976562 258.691406 139.980469 258.234375 138.160156 257.351562 C 136.335938 256.472656 134.738281 255.191406 133.484375 253.605469 C 132.226562 252.019531 131.34375 250.171875 130.902344 248.199219 C 130.464844 246.222656 130.476562 244.175781 130.9375 242.207031 L 136.6875 217.738281 C 136.71875 217.617188 136.789062 217.507812 136.886719 217.429688 C 136.988281 217.351562 137.113281 217.3125 137.238281 217.3125 L 143.179688 217.3125 C 143.261719 217.3125 143.347656 217.332031 143.421875 217.371094 C 143.496094 217.40625 143.5625 217.460938 143.617188 217.527344 C 143.667969 217.589844 143.707031 217.667969 143.722656 217.75 C 143.742188 217.832031 143.738281 217.917969 143.71875 217.996094 L 137.65625 243.78125 C 137.429688 244.738281 137.425781 245.730469 137.640625 246.691406 C 137.855469 247.648438 138.285156 248.546875 138.894531 249.316406 C 139.503906 250.085938 140.28125 250.707031 141.164062 251.136719 C 142.046875 251.5625 143.015625 251.785156 144 251.789062 L 215.109375 251.789062 C 216.582031 251.789062 218.007812 251.296875 219.160156 250.382812 C 220.3125 249.46875 221.125 248.191406 221.457031 246.761719 L 228.285156 217.738281 C 228.3125 217.617188 228.382812 217.507812 228.480469 217.429688 C 228.578125 217.355469 228.699219 217.3125 228.824219 217.3125 L 234.765625 217.3125 C 234.847656 217.3125 234.929688 217.332031 235.007812 217.371094 C 235.082031 217.40625 235.148438 217.460938 235.199219 217.527344 C 235.253906 217.589844 235.289062 217.667969 235.3125 217.75 C 235.332031 217.832031 235.332031 217.914062 235.316406 217.996094 L 228.171875 248.359375 C 227.484375 251.3125 225.8125 253.945312 223.433594 255.820312 C 221.050781 257.699219 218.101562 258.710938 215.066406 258.691406 Z M 137.632812 218.4375 L 132.007812 242.464844 C 131.582031 244.273438 131.570312 246.152344 131.972656 247.960938 C 132.378906 249.773438 133.1875 251.46875 134.339844 252.921875 C 135.496094 254.375 136.964844 255.550781 138.636719 256.355469 C 140.308594 257.160156 142.144531 257.574219 144 257.566406 L 215.109375 257.566406 C 217.886719 257.574219 220.582031 256.640625 222.753906 254.921875 C 224.929688 253.199219 226.453125 250.789062 227.082031 248.089844 L 234.054688 218.4375 L 229.273438 218.4375 L 222.523438 247.019531 C 222.140625 248.699219 221.191406 250.199219 219.839844 251.269531 C 218.488281 252.339844 216.8125 252.921875 215.089844 252.914062 L 144 252.914062 C 142.847656 252.914062 141.710938 252.652344 140.671875 252.152344 C 139.636719 251.648438 138.722656 250.917969 138.007812 250.015625 C 137.292969 249.113281 136.792969 248.058594 136.542969 246.933594 C 136.292969 245.8125 136.300781 244.644531 136.5625 243.523438 L 142.457031 218.4375 Z M 137.632812 218.4375 " fill-opacity="1" fill-rule="nonzero"/><path fill="#ffffff" d="M 320.421875 158.671875 C 320.421875 158.671875 330.480469 203.3125 322.246094 214.714844 C 314.011719 226.117188 256.5 224.316406 256.5 224.316406 C 256.5 224.316406 247.175781 235.507812 239.074219 234.761719 C 230.972656 234.023438 235.699219 218.707031 245.226562 212.332031 L 243.910156 207.011719 L 294.617188 198.882812 L 287.867188 166.800781 " fill-opacity="1" fill-rule="nonzero"/><path fill="#424242" d="M 239.816406 235.359375 C 239.539062 235.359375 239.257812 235.359375 238.972656 235.359375 C 237.925781 235.308594 236.921875 234.910156 236.125 234.226562 C 235.328125 233.546875 234.777344 232.621094 234.5625 231.59375 C 233.292969 226.613281 237.363281 217.109375 244.53125 212.117188 L 243.316406 207.179688 C 243.296875 207.105469 243.289062 207.03125 243.304688 206.953125 C 243.3125 206.878906 243.34375 206.804688 243.382812 206.742188 C 243.425781 206.675781 243.480469 206.621094 243.546875 206.578125 C 243.613281 206.535156 243.6875 206.507812 243.765625 206.496094 L 293.882812 198.457031 L 287.246094 166.96875 C 287.230469 166.898438 287.230469 166.824219 287.246094 166.75 C 287.257812 166.679688 287.289062 166.609375 287.328125 166.546875 C 287.371094 166.484375 287.421875 166.433594 287.484375 166.390625 C 287.542969 166.351562 287.613281 166.320312 287.683594 166.304688 C 287.757812 166.289062 287.832031 166.289062 287.902344 166.300781 C 287.976562 166.3125 288.046875 166.339844 288.105469 166.378906 C 288.167969 166.421875 288.222656 166.472656 288.265625 166.53125 C 288.304688 166.59375 288.335938 166.660156 288.347656 166.734375 L 295.097656 198.816406 C 295.117188 198.890625 295.117188 198.96875 295.101562 199.042969 C 295.085938 199.117188 295.054688 199.191406 295.007812 199.253906 C 294.964844 199.316406 294.910156 199.371094 294.847656 199.410156 C 294.785156 199.449219 294.710938 199.476562 294.636719 199.488281 L 244.542969 207.53125 L 245.667969 212.253906 C 245.695312 212.363281 245.691406 212.480469 245.648438 212.585938 C 245.609375 212.691406 245.535156 212.785156 245.441406 212.847656 C 238.554688 217.457031 234.425781 226.734375 235.609375 231.347656 C 235.761719 232.140625 236.175781 232.859375 236.789062 233.390625 C 237.402344 233.917969 238.175781 234.222656 238.984375 234.257812 C 246.691406 234.976562 255.859375 224.136719 255.925781 224.015625 C 255.980469 223.949219 256.050781 223.894531 256.128906 223.859375 C 256.207031 223.824219 256.289062 223.808594 256.375 223.8125 C 256.949219 223.8125 313.75 225.464844 321.695312 214.433594 C 329.636719 203.402344 319.894531 159.335938 319.792969 158.851562 C 319.777344 158.777344 319.773438 158.703125 319.789062 158.625 C 319.800781 158.550781 319.828125 158.480469 319.871094 158.417969 C 319.910156 158.355469 319.964844 158.296875 320.027344 158.253906 C 320.089844 158.210938 320.15625 158.183594 320.230469 158.164062 C 320.304688 158.148438 320.382812 158.148438 320.457031 158.160156 C 320.53125 158.175781 320.601562 158.203125 320.664062 158.242188 C 320.730469 158.285156 320.785156 158.335938 320.828125 158.398438 C 320.871094 158.460938 320.902344 158.53125 320.917969 158.605469 C 321.332031 160.4375 330.929688 203.582031 322.640625 215.097656 C 314.539062 226.339844 261.449219 225.082031 256.644531 224.9375 C 255.375 226.421875 247.355469 235.359375 239.816406 235.359375 Z M 239.816406 235.359375 " fill-opacity="1" fill-rule="nonzero"/><path fill="#424242" d="M 260.089844 136.566406 C 260 136.5625 259.917969 136.539062 259.839844 136.496094 C 259.773438 136.464844 259.710938 136.421875 259.660156 136.363281 C 259.609375 136.308594 259.566406 136.242188 259.542969 136.171875 C 259.519531 136.101562 259.507812 136.023438 259.511719 135.949219 C 259.515625 135.875 259.539062 135.800781 259.570312 135.734375 C 267.738281 118.867188 288.707031 107.519531 288.921875 107.40625 C 288.988281 107.371094 289.0625 107.347656 289.136719 107.339844 C 289.210938 107.332031 289.289062 107.335938 289.359375 107.359375 C 289.433594 107.382812 289.5 107.417969 289.558594 107.46875 C 289.617188 107.515625 289.664062 107.578125 289.699219 107.644531 C 289.734375 107.710938 289.757812 107.785156 289.769531 107.859375 C 289.777344 107.9375 289.769531 108.011719 289.746094 108.085938 C 289.726562 108.160156 289.6875 108.230469 289.640625 108.289062 C 289.589844 108.347656 289.53125 108.394531 289.460938 108.429688 C 289.261719 108.542969 268.617188 119.675781 260.617188 136.238281 C 260.566406 136.335938 260.492188 136.417969 260.398438 136.476562 C 260.304688 136.53125 260.199219 136.5625 260.089844 136.566406 Z M 260.089844 136.566406 " fill-opacity="1" fill-rule="nonzero"/><path fill="#424242" d="M 225.417969 135.765625 C 225.335938 135.78125 225.25 135.78125 225.167969 135.765625 C 205.570312 126.769531 203.199219 107.003906 203.175781 106.8125 C 203.160156 106.660156 203.203125 106.503906 203.300781 106.382812 C 203.398438 106.265625 203.539062 106.1875 203.691406 106.171875 C 203.769531 106.160156 203.84375 106.167969 203.917969 106.1875 C 203.992188 106.207031 204.058594 106.242188 204.121094 106.289062 C 204.179688 106.335938 204.230469 106.394531 204.265625 106.460938 C 204.300781 106.527344 204.324219 106.601562 204.332031 106.675781 C 204.332031 106.867188 206.671875 125.996094 225.707031 134.609375 C 225.847656 134.671875 225.957031 134.789062 226.011719 134.929688 C 226.066406 135.074219 226.0625 135.234375 226 135.371094 C 225.957031 135.492188 225.878906 135.59375 225.773438 135.664062 C 225.667969 135.734375 225.542969 135.769531 225.417969 135.765625 Z M 225.417969 135.765625 " fill-opacity="1" fill-rule="nonzero"/><path fill="#424242" d="M 136.125 161.257812 C 136.003906 161.222656 135.894531 161.148438 135.816406 161.046875 C 135.742188 160.945312 135.699219 160.824219 135.699219 160.695312 C 135.699219 160.566406 135.742188 160.445312 135.816406 160.34375 C 135.894531 160.242188 136.003906 160.167969 136.125 160.132812 C 144.609375 159.875 148.726562 155.085938 148.769531 155.039062 C 148.816406 154.980469 148.875 154.933594 148.941406 154.898438 C 149.011719 154.863281 149.082031 154.839844 149.160156 154.832031 C 149.234375 154.824219 149.308594 154.832031 149.382812 154.855469 C 149.453125 154.875 149.523438 154.914062 149.578125 154.960938 C 149.699219 155.058594 149.773438 155.203125 149.789062 155.355469 C 149.804688 155.507812 149.757812 155.664062 149.660156 155.78125 C 149.480469 155.996094 145.160156 161.019531 136.160156 161.292969 Z M 136.125 161.257812 " fill-opacity="1" fill-rule="nonzero"/><path fill="#424242" d="M 287.796875 167.375 C 287.667969 167.375 287.542969 167.332031 287.441406 167.253906 C 287.335938 167.175781 287.265625 167.0625 287.234375 166.9375 C 287.234375 166.734375 281.9375 146.011719 281.203125 133.585938 C 281.199219 133.507812 281.210938 133.433594 281.234375 133.363281 C 281.261719 133.292969 281.296875 133.226562 281.347656 133.167969 C 281.398438 133.113281 281.460938 133.066406 281.527344 133.035156 C 281.597656 133 281.671875 132.980469 281.746094 132.976562 C 281.898438 132.96875 282.050781 133.019531 282.164062 133.121094 C 282.28125 133.222656 282.351562 133.363281 282.363281 133.515625 C 283.09375 145.828125 288.316406 166.441406 288.359375 166.65625 C 288.398438 166.804688 288.375 166.960938 288.296875 167.09375 C 288.21875 167.226562 288.09375 167.324219 287.945312 167.363281 Z M 287.796875 167.375 " fill-opacity="1" fill-rule="nonzero"/><path fill="#424242" d="M 197.121094 171.074219 C 197.046875 171.070312 196.972656 171.050781 196.902344 171.015625 C 196.832031 170.984375 196.773438 170.9375 196.722656 170.878906 C 196.671875 170.820312 196.632812 170.753906 196.609375 170.679688 C 196.585938 170.609375 196.578125 170.53125 196.582031 170.457031 L 199.371094 126.769531 C 199.378906 126.695312 199.398438 126.621094 199.429688 126.550781 C 199.464844 126.480469 199.511719 126.421875 199.566406 126.371094 C 199.625 126.320312 199.691406 126.28125 199.765625 126.257812 C 199.839844 126.234375 199.914062 126.222656 199.992188 126.230469 C 200.066406 126.234375 200.140625 126.253906 200.210938 126.285156 C 200.277344 126.316406 200.339844 126.363281 200.390625 126.417969 C 200.441406 126.476562 200.480469 126.542969 200.503906 126.613281 C 200.527344 126.6875 200.539062 126.761719 200.53125 126.835938 L 197.695312 170.523438 C 197.691406 170.671875 197.628906 170.8125 197.519531 170.914062 C 197.414062 171.015625 197.269531 171.074219 197.121094 171.074219 Z M 197.121094 171.074219 " fill-opacity="1" fill-rule="nonzero"/><path fill="#424242" d="M 296.730469 146.640625 C 296.625 146.640625 296.523438 146.613281 296.433594 146.558594 C 296.34375 146.503906 296.273438 146.429688 296.222656 146.335938 L 290.777344 136.214844 C 290.71875 136.066406 290.71875 135.902344 290.777344 135.753906 C 290.832031 135.605469 290.941406 135.480469 291.082031 135.40625 L 307.957031 127.433594 C 308.027344 127.398438 308.101562 127.378906 308.175781 127.375 C 308.253906 127.371094 308.332031 127.378906 308.402344 127.40625 C 308.476562 127.429688 308.542969 127.46875 308.597656 127.519531 C 308.65625 127.574219 308.703125 127.632812 308.734375 127.703125 C 308.800781 127.84375 308.808594 128 308.757812 128.148438 C 308.707031 128.292969 308.601562 128.410156 308.464844 128.480469 L 292.105469 136.191406 L 297.035156 145.324219 L 313.605469 140.265625 C 313.679688 140.242188 313.757812 140.234375 313.832031 140.242188 C 313.910156 140.25 313.984375 140.273438 314.054688 140.308594 C 314.121094 140.347656 314.179688 140.394531 314.230469 140.457031 C 314.277344 140.515625 314.316406 140.582031 314.335938 140.65625 C 314.359375 140.730469 314.367188 140.808594 314.359375 140.886719 C 314.351562 140.960938 314.328125 141.035156 314.292969 141.105469 C 314.253906 141.171875 314.203125 141.234375 314.144531 141.28125 C 314.085938 141.328125 314.015625 141.367188 313.941406 141.386719 L 296.898438 146.652344 Z M 296.730469 146.640625 " fill-opacity="1" fill-rule="nonzero"/><path fill="#ffffff" d="M 311.34375 274.953125 C 326.683594 274.953125 339.121094 271.210938 339.121094 266.597656 C 339.121094 261.984375 326.683594 258.242188 311.34375 258.242188 C 296.003906 258.242188 283.566406 261.984375 283.566406 266.597656 C 283.566406 271.210938 296.003906 274.953125 311.34375 274.953125 Z M 311.34375 274.953125 " fill-opacity="1" fill-rule="nonzero"/><path fill="#d1d3d4" d="M 311.34375 275.515625 C 295.457031 275.515625 283.003906 271.601562 283.003906 266.597656 C 283.003906 261.59375 295.457031 257.679688 311.34375 257.679688 C 327.230469 257.679688 339.683594 261.59375 339.683594 266.597656 C 339.683594 271.601562 327.230469 275.515625 311.34375 275.515625 Z M 311.34375 258.804688 C 295.066406 258.804688 284.128906 262.828125 284.128906 266.597656 C 284.128906 270.363281 295.066406 274.390625 311.34375 274.390625 C 327.621094 274.390625 338.558594 270.363281 338.558594 266.597656 C 338.558594 262.828125 327.621094 258.804688 311.34375 258.804688 Z M 311.34375 258.804688 " fill-opacity="1" fill-rule="nonzero"/><path fill="#ffffff" d="M 290.410156 242.734375 L 289.742188 242.859375 C 287.738281 243.160156 285.910156 244.1875 284.613281 245.75 C 283.886719 246.859375 283.488281 248.148438 283.457031 249.476562 C 283.425781 250.800781 283.769531 252.109375 284.445312 253.25 C 287.390625 258.558594 294.570312 259.996094 300.105469 260.546875 C 300.890625 260.675781 301.691406 260.613281 302.445312 260.367188 C 302.816406 260.238281 303.140625 260 303.375 259.683594 C 303.605469 259.367188 303.734375 258.984375 303.738281 258.589844 C 303.691406 258.269531 303.5625 257.960938 303.367188 257.699219 C 303.171875 257.4375 302.910156 257.230469 302.613281 257.09375 C 302.035156 256.828125 301.414062 256.652344 300.78125 256.578125 C 297.335938 256.015625 293.714844 255.601562 290.566406 254.015625 C 288.730469 253.082031 286.167969 250.957031 287.503906 248.660156 C 287.972656 247.9375 288.648438 247.363281 289.441406 247.019531 C 292.601562 245.511719 295.605469 246.660156 298.722656 247.582031 C 298.949219 247.664062 299.1875 247.699219 299.429688 247.683594 C 299.726562 247.601562 299.984375 247.414062 300.152344 247.152344 C 300.320312 246.894531 300.386719 246.582031 300.339844 246.277344 C 300.238281 244.917969 298.878906 244.027344 297.597656 243.523438 C 295.304688 242.652344 292.832031 242.382812 290.410156 242.734375 Z M 290.410156 242.734375 " fill-opacity="1" fill-rule="nonzero"/><path fill="#424242" d="M 301.039062 261.164062 C 300.710938 261.164062 300.386719 261.144531 300.058594 261.109375 C 291.609375 260.3125 286.347656 257.839844 283.949219 253.519531 C 283.21875 252.285156 282.851562 250.867188 282.890625 249.433594 C 282.929688 248 283.371094 246.609375 284.164062 245.410156 C 285.542969 243.742188 287.488281 242.636719 289.632812 242.308594 L 290.328125 242.183594 C 292.863281 241.808594 295.453125 242.089844 297.84375 243.007812 C 298.96875 243.421875 300.800781 244.398438 300.949219 246.234375 C 301.003906 246.683594 300.894531 247.132812 300.636719 247.507812 C 300.378906 247.878906 299.992188 248.140625 299.554688 248.246094 C 299.234375 248.265625 298.914062 248.226562 298.609375 248.121094 L 297.796875 247.875 C 295.03125 247.03125 292.421875 246.246094 289.734375 247.527344 C 289.035156 247.820312 288.445312 248.320312 288.035156 248.953125 C 287.886719 249.1875 287.792969 249.445312 287.753906 249.71875 C 287.71875 249.988281 287.742188 250.265625 287.820312 250.527344 C 288.4375 251.859375 289.515625 252.917969 290.859375 253.507812 C 293.652344 254.722656 296.613281 255.503906 299.644531 255.824219 L 300.914062 256.027344 C 301.613281 256.105469 302.296875 256.296875 302.929688 256.601562 C 303.382812 256.769531 303.765625 257.082031 304.027344 257.488281 C 304.289062 257.890625 304.414062 258.371094 304.382812 258.851562 C 304.351562 259.335938 304.164062 259.792969 303.851562 260.160156 C 303.539062 260.527344 303.117188 260.785156 302.648438 260.894531 C 302.132812 261.082031 301.585938 261.175781 301.039062 261.164062 Z M 290.496094 243.296875 L 289.855469 243.410156 C 287.988281 243.6875 286.285156 244.636719 285.0625 246.074219 C 284.398438 247.101562 284.035156 248.289062 284.015625 249.511719 C 283.992188 250.730469 284.3125 251.933594 284.941406 252.980469 C 287.132812 256.9375 292.117188 259.230469 300.160156 259.984375 C 300.851562 260.097656 301.5625 260.050781 302.230469 259.851562 C 302.492188 259.761719 302.722656 259.597656 302.890625 259.378906 C 303.058594 259.164062 303.15625 258.898438 303.175781 258.625 C 303.140625 258.402344 303.050781 258.191406 302.910156 258.007812 C 302.773438 257.828125 302.59375 257.683594 302.390625 257.589844 C 301.867188 257.351562 301.308594 257.199219 300.734375 257.140625 L 299.464844 256.9375 C 296.320312 256.601562 293.246094 255.785156 290.351562 254.507812 C 288.730469 253.789062 287.441406 252.484375 286.738281 250.855469 C 286.617188 250.441406 286.582031 250.007812 286.636719 249.582031 C 286.695312 249.15625 286.839844 248.746094 287.066406 248.382812 C 287.585938 247.550781 288.347656 246.902344 289.25 246.515625 C 292.332031 245.042969 295.277344 245.929688 298.125 246.796875 L 298.933594 247.042969 C 299.085938 247.097656 299.246094 247.125 299.40625 247.121094 C 299.675781 247.121094 299.847656 246.660156 299.824219 246.324219 C 299.734375 245.0625 298.125 244.320312 297.4375 244.074219 C 295.226562 243.230469 292.835938 242.972656 290.496094 243.320312 Z M 290.496094 243.296875 " fill-opacity="1" fill-rule="nonzero"/><path fill="#ffffff" d="M 293.007812 237.046875 C 293.007812 237.046875 298.203125 262.976562 298.632812 264.539062 C 299.058594 266.101562 311.34375 272.523438 321.132812 266.214844 L 329.691406 239.710938 Z M 293.007812 237.046875 " fill-opacity="1" fill-rule="nonzero"/><path fill="#424242" d="M 311.558594 269.507812 C 308.617188 269.484375 305.703125 268.929688 302.960938 267.867188 C 300.800781 267.035156 298.351562 265.6875 298.078125 264.683594 C 297.664062 263.121094 292.667969 238.226562 292.453125 237.160156 C 292.433594 237.074219 292.433594 236.988281 292.457031 236.902344 C 292.476562 236.816406 292.515625 236.738281 292.574219 236.675781 C 292.632812 236.609375 292.703125 236.558594 292.785156 236.527344 C 292.867188 236.496094 292.953125 236.484375 293.039062 236.496094 L 329.726562 239.214844 C 329.8125 239.222656 329.894531 239.246094 329.96875 239.285156 C 330.046875 239.328125 330.109375 239.386719 330.15625 239.457031 C 330.203125 239.527344 330.234375 239.609375 330.246094 239.695312 C 330.257812 239.78125 330.25 239.867188 330.222656 239.949219 L 321.660156 266.449219 C 321.617188 266.574219 321.535156 266.675781 321.421875 266.742188 C 318.476562 268.609375 315.046875 269.570312 311.558594 269.507812 Z M 293.703125 237.664062 C 294.546875 241.882812 298.800781 263.011719 299.171875 264.394531 C 299.328125 264.765625 301.355469 266.269531 304.941406 267.363281 C 308.316406 268.386719 314.773438 269.542969 320.691406 265.855469 L 328.972656 240.230469 Z M 293.703125 237.664062 " fill-opacity="1" fill-rule="nonzero"/><path fill="#424242" d="M 329.78125 238.558594 C 329.960938 234.164062 321.878906 230.265625 311.730469 229.851562 C 301.578125 229.433594 293.203125 232.65625 293.023438 237.050781 C 292.84375 241.445312 300.925781 245.34375 311.074219 245.757812 C 321.226562 246.175781 329.601562 242.953125 329.78125 238.558594 Z M 329.78125 238.558594 " fill-opacity="1" fill-rule="nonzero"/><path fill="#424242" d="M 312.828125 246.355469 C 312.234375 246.355469 311.636719 246.355469 311.039062 246.355469 C 300.410156 245.929688 292.242188 241.859375 292.445312 237.070312 C 292.644531 232.277344 301.117188 228.90625 311.738281 229.34375 C 322.359375 229.78125 330.523438 233.839844 330.324219 238.632812 C 330.234375 240.992188 328.074219 243.128906 324.347656 244.523438 C 320.648438 245.820312 316.746094 246.441406 312.828125 246.355469 Z M 310.003906 230.378906 C 301.082031 230.378906 293.714844 233.300781 293.558594 237.125 C 293.398438 241.128906 301.433594 244.851562 311.085938 245.242188 C 315.46875 245.5 319.855469 244.882812 324 243.433594 C 327.261719 242.183594 329.175781 240.398438 329.253906 238.542969 C 329.421875 234.527344 321.378906 230.804688 311.738281 230.410156 Z M 310.003906 230.378906 " fill-opacity="1" fill-rule="nonzero"/><path fill="#ffffff" d="M 267.378906 165.003906 L 207.855469 165.003906 C 207.707031 165.003906 207.5625 164.941406 207.457031 164.835938 C 207.351562 164.730469 207.292969 164.589844 207.292969 164.441406 L 207.292969 146.875 C 207.296875 146.726562 207.355469 146.585938 207.460938 146.480469 C 207.566406 146.375 207.707031 146.316406 207.855469 146.3125 L 267.378906 146.3125 C 267.527344 146.3125 267.671875 146.371094 267.777344 146.480469 C 267.882812 146.582031 267.941406 146.726562 267.941406 146.875 L 267.941406 164.472656 C 267.933594 164.617188 267.871094 164.75 267.765625 164.851562 C 267.660156 164.949219 267.523438 165.003906 267.378906 165.003906 Z M 208.417969 163.878906 L 266.816406 163.878906 L 266.816406 147.4375 L 208.417969 147.4375 Z M 208.417969 163.878906 " fill-opacity="1" fill-rule="nonzero"/><path fill="#ffffff" d="M 377.753906 289.46875 L 72.238281 289.46875 L 72.238281 301.242188 L 377.753906 301.242188 Z M 377.753906 289.46875 " fill-opacity="1" fill-rule="nonzero"/><path fill="#d1d3d4" d="M 377.765625 301.804688 L 72.238281 301.804688 C 72.085938 301.804688 71.945312 301.746094 71.839844 301.640625 C 71.734375 301.535156 71.675781 301.390625 71.675781 301.242188 L 71.675781 289.46875 C 71.675781 289.320312 71.738281 289.179688 71.84375 289.074219 C 71.945312 288.96875 72.089844 288.910156 72.238281 288.90625 L 377.765625 288.90625 C 377.914062 288.910156 378.054688 288.96875 378.160156 289.074219 C 378.261719 289.179688 378.324219 289.320312 378.328125 289.46875 L 378.328125 301.242188 C 378.328125 301.390625 378.265625 301.535156 378.160156 301.640625 C 378.054688 301.746094 377.914062 301.804688 377.765625 301.804688 Z M 72.800781 300.679688 L 377.203125 300.679688 L 377.203125 290.03125 L 72.800781 290.03125 Z M 72.800781 300.679688 " fill-opacity="1" fill-rule="nonzero"/><path fill="#ffffff" d="M 329.679688 179.519531 C 329.535156 179.511719 329.394531 179.449219 329.289062 179.34375 C 329.1875 179.238281 329.128906 179.09375 329.128906 178.945312 C 329.128906 177.652344 329.953125 147.167969 333.316406 136.609375 C 336.679688 126.050781 342.988281 121.65625 343.25 121.484375 C 343.371094 121.402344 343.523438 121.371094 343.671875 121.398438 C 343.816406 121.429688 343.945312 121.511719 344.03125 121.636719 C 344.113281 121.761719 344.144531 121.914062 344.117188 122.058594 C 344.089844 122.207031 344.003906 122.335938 343.878906 122.417969 C 343.8125 122.417969 337.65625 126.679688 334.382812 136.945312 C 331.109375 147.214844 330.265625 178.652344 330.253906 178.96875 C 330.253906 179.042969 330.238281 179.113281 330.207031 179.183594 C 330.179688 179.25 330.136719 179.3125 330.082031 179.363281 C 330.027344 179.414062 329.964844 179.453125 329.898438 179.480469 C 329.828125 179.507812 329.753906 179.519531 329.679688 179.519531 Z M 329.679688 179.519531 " fill-opacity="1" fill-rule="nonzero"/></svg>