<svg width="241" height="84" viewBox="0 0 241 84" fill="none" xmlns="http://www.w3.org/2000/svg">
<path d="M63.9483 28.041C63.9483 26.0548 65.639 24.5873 68.457 24.5873C71.3615 24.5873 73.7464 26.0123 74.8736 28.7323L80.6827 25.5798C78.7309 20.961 74.4393 18.2835 68.7607 18.2835C62.3441 18.2835 56.9254 22.4285 56.9254 28.4723C56.9254 31.0635 57.966 33.2223 59.5262 34.7323C61.3475 36.546 64.1654 37.7548 67.8068 38.8335C72.7485 40.3023 74.2222 41.2085 74.2222 43.1948C74.2222 45.2673 72.0983 46.7773 69.0632 46.7773C65.639 46.7773 62.9516 45.0073 61.6512 42.0723L55.5811 45.181C57.5756 50.016 62.4307 53.1235 68.8474 53.1235C76.8669 53.1235 81.289 48.6348 81.289 42.676C81.289 36.9773 76.9535 34.3448 69.4109 32.186C65.7696 31.1498 63.9483 30.156 63.9483 28.041Z" fill="white"/>
<path d="M99.4526 39.8273V52.606H106.173V38.2723C106.173 33.5235 103.528 29.1198 97.6753 29.1198C96.4615 29.1198 93.2532 29.5085 91.3026 32.2723H91.2599V17.4635H84.4968V52.606H91.2599V39.741C91.2599 37.5385 92.5164 35.3373 95.4209 35.3373C98.1962 35.3373 99.4526 37.3235 99.4526 39.8273Z" fill="white"/>
<path d="M109.727 21.5222C109.727 23.8097 111.634 25.666 113.888 25.666C116.273 25.666 118.137 23.8097 118.137 21.5222C118.137 19.191 116.273 17.3347 113.888 17.3347C111.634 17.3347 109.727 19.191 109.727 21.5222ZM110.551 52.606V29.5522H117.357V52.606H110.551Z" fill="white"/>
<path d="M128.715 41.6835H128.888L137.081 52.606H145.621L136.04 40.1722L145.362 29.5522H136.735L128.715 38.6185V17.421H121.952V52.606H128.715V41.6835Z" fill="white"/>
<path d="M164.566 45.6547C164.566 41.4672 161.185 39.3085 155.635 38.1435C153.338 37.6685 152.6 36.9347 152.6 36.0272C152.6 35.121 153.598 34.3447 155.029 34.3447C157.153 34.3447 158.453 35.2072 159.234 36.546L164.133 33.6535C162.702 30.9335 159.624 28.991 155.202 28.991C150.52 28.991 146.315 31.8835 146.315 36.2872C146.315 40.8635 150.259 42.806 154.552 43.756C157.759 44.446 158.236 45.2235 158.236 46.001C158.236 46.8635 157.153 47.6847 155.418 47.6847C152.861 47.6847 151.04 46.5185 150.217 44.8785L145.231 47.8135C146.922 51.0085 149.913 53.1235 155.332 53.1235C161.141 53.1235 164.566 49.9722 164.566 45.6547Z" fill="white"/>
<path d="M182.643 39.8273V52.606H189.363V38.2723C189.363 33.5235 186.719 29.1198 180.866 29.1198C179.652 29.1198 176.444 29.5085 174.493 32.2723H174.45V17.4635H167.687V52.606H174.45V39.741C174.45 37.5385 175.707 35.3373 178.611 35.3373C181.387 35.3373 182.643 37.3235 182.643 39.8273Z" fill="white"/>
<path d="M200.937 50.1447L195.259 63.9597H202.497L216.544 29.5522H209.564L204.405 42.7197L198.639 29.5522H191.183L200.937 50.1447Z" fill="white"/>
<path d="M225.083 53.0373C227.599 53.0373 230.286 52.1748 232.019 49.7135L232.107 49.7573V52.606H238.349V38.316C238.349 32.0998 234.187 29.0335 228.291 29.0335C223.046 29.0335 219.535 31.106 217.67 34.5173L222.829 37.5823C223.956 35.5535 225.56 34.4735 227.988 34.4735C230.546 34.4735 231.717 35.8548 231.717 37.3235C231.717 38.2723 231.153 39.0073 229.896 39.0073H227.599C222.915 39.0073 217.281 40.3885 217.281 46.0873V46.1735C217.281 50.4473 220.922 53.0373 225.083 53.0373ZM227.035 48.116C225.431 48.116 224.087 47.4248 224.087 45.7848C224.087 43.971 225.777 43.151 227.599 43.151H231.673V43.6698C231.673 46.0873 230.026 48.116 227.035 48.116Z" fill="white"/>
<path d="M61.5828 59.1118C61.5828 58.7531 61.8878 58.4881 62.3962 58.4881C62.9209 58.4881 63.3514 58.7456 63.5547 59.2368L64.6041 58.6681C64.2514 57.8343 63.4769 57.3506 62.4514 57.3506C61.2929 57.3506 60.315 58.0993 60.315 59.1906C60.315 59.6581 60.5021 60.0468 60.7845 60.3206C61.1134 60.6481 61.6217 60.8656 62.2794 61.0606C63.1719 61.3256 63.438 61.4893 63.438 61.8481C63.438 62.2218 63.0539 62.4943 62.5066 62.4943C61.8878 62.4943 61.4021 62.1756 61.1673 61.6456L60.0715 62.2068C60.4318 63.0793 61.3092 63.6406 62.4665 63.6406C63.915 63.6406 64.7133 62.8293 64.7133 61.7543C64.7133 60.7256 63.93 60.2506 62.5681 59.8606C61.9117 59.6731 61.5828 59.4943 61.5828 59.1118Z" fill="white"/>
<path d="M72.5399 59.5168H72.5475V63.5468H73.8002V57.4443H72.1169L70.4111 61.5356L68.6739 57.4443H67.0371V63.5468H68.2823V59.5481H68.2898L69.9881 63.5468H70.8329L72.5399 59.5168Z" fill="white"/>
<path d="M77.0788 63.5468L77.5331 62.3156H80.2482L80.7101 63.5468H82.0167L79.6695 57.4443H78.1432L75.8035 63.5468H77.0788ZM78.895 58.6681L79.8176 61.1468H77.9712L78.895 58.6681Z" fill="white"/>
<path d="M88.7324 63.5468L87.3467 61.1618C88.1764 60.8656 88.6069 60.2506 88.6069 59.3768C88.6069 58.0831 87.6291 57.4443 86.4392 57.4443H84.0204V63.5468H85.2881V61.3568H86.0563L87.3241 63.5468H88.7324ZM86.345 60.1881H85.2881V58.6368H86.3375C86.8145 58.6368 87.3241 58.8156 87.3241 59.4006C87.3241 59.9768 86.8145 60.1881 86.345 60.1881Z" fill="white"/>
<path d="M92.3323 63.5468H93.5925V58.6681H95.4314V57.4443H90.4934V58.6681H92.3323V63.5468Z" fill="white"/>
<path d="M101.818 59.1118C101.818 58.7531 102.123 58.4881 102.632 58.4881C103.156 58.4881 103.587 58.7456 103.79 59.2368L104.84 58.6681C104.487 57.8343 103.712 57.3506 102.687 57.3506C101.528 57.3506 100.551 58.0993 100.551 59.1906C100.551 59.6581 100.738 60.0468 101.02 60.3206C101.349 60.6481 101.857 60.8656 102.515 61.0606C103.407 61.3256 103.673 61.4893 103.673 61.8481C103.673 62.2218 103.289 62.4943 102.742 62.4943C102.123 62.4943 101.638 62.1756 101.403 61.6456L100.307 62.2068C100.667 63.0793 101.545 63.6406 102.702 63.6406C104.15 63.6406 104.949 62.8293 104.949 61.7543C104.949 60.7256 104.166 60.2506 102.804 59.8606C102.147 59.6731 101.818 59.4943 101.818 59.1118Z" fill="white"/>
<path d="M106.897 60.4993C106.897 62.2768 108.267 63.6331 110.052 63.6331C111.257 63.6331 112.454 62.9706 112.877 61.8168L111.711 61.2793C111.445 61.9418 110.834 62.4093 110.067 62.4093C108.98 62.4093 108.213 61.5443 108.213 60.4843C108.213 59.4393 109.002 58.5818 110.067 58.5818C110.834 58.5818 111.436 59.0106 111.695 59.6806L112.853 59.1506C112.439 58.0056 111.281 57.3506 110.076 57.3506C108.322 57.3506 106.897 58.7381 106.897 60.4993Z" fill="white"/>
<path d="M116.351 61.0756H118.919V63.5468H120.187V57.4443H118.919V59.8531H116.351V57.4443H115.083V63.5468H116.351V61.0756Z" fill="white"/>
<path d="M122.534 60.4993C122.534 62.2606 123.943 63.6406 125.704 63.6406C127.465 63.6406 128.897 62.2456 128.897 60.4681C128.897 58.7143 127.496 57.3506 125.735 57.3506C123.974 57.3506 122.534 58.7456 122.534 60.4993ZM123.834 60.4918C123.834 59.4393 124.663 58.5743 125.72 58.5743C126.777 58.5743 127.605 59.4393 127.605 60.4918C127.605 61.5443 126.777 62.4168 125.72 62.4168C124.663 62.4168 123.834 61.5443 123.834 60.4918Z" fill="white"/>
<path d="M130.87 60.4993C130.87 62.2606 132.278 63.6406 134.039 63.6406C135.8 63.6406 137.232 62.2456 137.232 60.4681C137.232 58.7143 135.831 57.3506 134.07 57.3506C132.309 57.3506 130.87 58.7456 130.87 60.4993ZM132.169 60.4918C132.169 59.4393 132.998 58.5743 134.055 58.5743C135.112 58.5743 135.941 59.4393 135.941 60.4918C135.941 61.5443 135.112 62.4168 134.055 62.4168C132.998 62.4168 132.169 61.5443 132.169 60.4918Z" fill="white"/>
<path d="M139.58 57.4443V63.5468H143.462V62.3468H140.84V57.4443H139.58Z" fill="white"/>
<path d="M149.818 59.1118C149.818 58.7531 150.123 58.4881 150.631 58.4881C151.156 58.4881 151.586 58.7456 151.789 59.2368L152.839 58.6681C152.486 57.8343 151.712 57.3506 150.686 57.3506C149.528 57.3506 148.55 58.0993 148.55 59.1906C148.55 59.6581 148.737 60.0468 149.019 60.3206C149.348 60.6481 149.856 60.8656 150.514 61.0606C151.407 61.3256 151.673 61.4893 151.673 61.8481C151.673 62.2218 151.289 62.4943 150.741 62.4943C150.123 62.4943 149.637 62.1756 149.402 61.6456L148.306 62.2068C148.667 63.0793 149.544 63.6406 150.701 63.6406C152.15 63.6406 152.948 62.8293 152.948 61.7543C152.948 60.7256 152.165 60.2506 150.803 59.8606C150.146 59.6731 149.818 59.4943 149.818 59.1118Z" fill="white"/>
<path d="M156.916 63.5468H158.184V61.0756L160.43 57.4443H158.982L157.55 59.8843L156.133 57.4443H154.669L156.916 61.1306V63.5468Z" fill="white"/>
<path d="M163.49 59.1118C163.49 58.7531 163.795 58.4881 164.304 58.4881C164.828 58.4881 165.259 58.7456 165.462 59.2368L166.512 58.6681C166.159 57.8343 165.384 57.3506 164.359 57.3506C163.2 57.3506 162.223 58.0993 162.223 59.1906C162.223 59.6581 162.41 60.0468 162.692 60.3206C163.021 60.6481 163.529 60.8656 164.187 61.0606C165.079 61.3256 165.345 61.4893 165.345 61.8481C165.345 62.2218 164.961 62.4943 164.414 62.4943C163.795 62.4943 163.31 62.1756 163.075 61.6456L161.979 62.2068C162.339 63.0793 163.217 63.6406 164.374 63.6406C165.822 63.6406 166.621 62.8293 166.621 61.7543C166.621 60.7256 165.838 60.2506 164.476 59.8606C163.819 59.6731 163.49 59.4943 163.49 59.1118Z" fill="white"/>
<path d="M170.236 63.5468H171.496V58.6681H173.335V57.4443H168.397V58.6681H170.236V63.5468Z" fill="white"/>
<path d="M175.511 57.4443V63.5468H179.541V62.3693H176.764V61.0531H179.236V59.8681H176.764V58.6293H179.526V57.4443H175.511Z" fill="white"/>
<path d="M187.502 59.5168H187.509V63.5468H188.762V57.4443H187.079L185.373 61.5356L183.636 57.4443H181.999V63.5468H183.244V59.5481H183.252L184.95 63.5468H185.795L187.502 59.5168Z" fill="white"/>
<mask id="mask0_25_384" style="mask-type:luminance" maskUnits="userSpaceOnUse" x="23" y="3" width="29" height="50">
<path d="M23.4573 3.39249H51.4133V52.16H23.4573V3.39249Z" fill="white"/>
</mask>
<g mask="url(#mask0_25_384)">
<path d="M49.11 3.39249C50.7267 3.39249 51.6932 4.66374 51.2601 6.21749L38.7909 50.7637C38.3553 52.3187 37.6185 52.3275 37.1541 50.7825L23.6895 6.20124C23.2226 4.65874 24.1627 3.39249 25.7794 3.39249H34.1855C35.8022 3.39249 38.4457 3.39249 40.0624 3.39249H49.11Z" fill="#EA4335"/>
</g>
<path d="M20.2641 15.645C21.3523 14.96 22.5448 15.4038 22.9163 16.635L33.5329 51.935C33.9032 53.1663 33.4086 53.485 32.4346 52.6413L4.34552 28.3488C3.37147 27.5075 3.46687 26.255 4.55262 25.5713L10.2149 21.9938C11.3031 21.3075 13.0843 20.1813 14.1713 19.4938L20.2641 15.645Z" fill="#EA4335"/>
<path d="M6.99777 38.2787C7.40446 37.3737 8.35967 37.1537 9.12661 37.7887L31.0312 55.975C31.7969 56.6087 31.6149 57.0237 30.6296 56.8975L2.18154 53.2262C1.1962 53.0987 0.721729 52.2562 1.12716 51.3512L3.24219 46.64C3.64888 45.7375 4.31414 44.2537 4.72082 43.3487L6.99777 38.2787Z" fill="#EA4335"/>
<path d="M7.4685 58.5763C7.35051 57.8063 7.88899 57.255 8.6622 57.3475L30.8832 60.0125C31.6564 60.105 31.7179 60.4563 31.0099 60.7925L10.6806 70.4875C9.9764 70.8238 9.30612 70.4663 9.18437 69.6988L8.5668 65.6913C8.44756 64.9225 8.253 63.6613 8.13376 62.89L7.4685 58.5763Z" fill="#EA4335"/>
<path d="M16.5009 71.9C16.0766 71.435 16.1909 70.8225 16.7532 70.54L32.9015 62.42C33.4663 62.1363 33.6609 62.3488 33.3395 62.89L23.9932 78.4863C23.6707 79.025 23.0569 79.0863 22.6326 78.6213L20.4234 76.1963C20.0004 75.7325 19.3038 74.97 18.8808 74.505L16.5009 71.9Z" fill="#EA4335"/>
<mask id="mask1_25_384" style="mask-type:luminance" maskUnits="userSpaceOnUse" x="28" y="64" width="10" height="17">
<path d="M28.2773 64.64H37.2747V80.5263H28.2773V64.64Z" fill="white"/>
</mask>
<g mask="url(#mask1_25_384)">
<path d="M29.1058 78.9113C28.6112 78.8088 28.3953 78.355 28.6313 77.905L35.3567 65.0025C35.5927 64.5525 35.8186 64.5963 35.8638 65.1025L37.1127 79.6925C37.1554 80.1988 36.7851 80.5263 36.2893 80.4225L33.6998 79.8775C33.2028 79.7725 32.3894 79.6038 31.8936 79.4988L29.1058 78.9113Z" fill="#EA4335"/>
</g>
<path d="M39.893 78.2938C39.4688 78.4213 39.1148 78.1625 39.1085 77.7238L38.8688 65.0675C38.8587 64.625 39.052 64.565 39.2968 64.9313L46.3373 75.5638C46.5808 75.9313 46.4327 76.335 46.0097 76.4625L43.8068 77.1238C43.3825 77.2488 42.6884 77.4563 42.2666 77.585L39.893 78.2938Z" fill="#EA4335"/>
<path d="M48.3908 69.795C48.2113 70.0938 47.8699 70.1313 47.6301 69.8813L40.724 62.6713C40.483 62.4188 40.5633 62.2825 40.901 62.3663L50.6652 64.7763C51.0029 64.86 51.1347 65.1725 50.9577 65.4713L50.0326 67.0288C49.8544 67.3275 49.5657 67.8175 49.3862 68.1175L48.3908 69.795Z" fill="#EA4335"/>
<path d="M49.4012 59.265C49.4464 59.5287 49.2669 59.7187 49.0033 59.6925L41.4445 58.9212C41.1796 58.895 41.1583 58.7737 41.3943 58.6562L48.2402 55.2412C48.4774 55.1237 48.7096 55.2412 48.7523 55.5025L48.9858 56.8562C49.0309 57.1175 49.1063 57.545 49.1514 57.8062L49.4012 59.265Z" fill="#EA4335"/>
<path d="M47.0603 52.6362C47.1657 52.825 47.0816 53.0187 46.872 53.0687L40.8784 54.5075C40.6713 54.555 40.6236 54.4687 40.7704 54.3162L45.0896 49.8675C45.239 49.7137 45.4486 49.7425 45.5528 49.9262L46.0963 50.9062C46.1992 51.0925 46.3712 51.4 46.4779 51.5862L47.0603 52.6362Z" fill="#EA4335"/>
</svg>
