<svg width="1000" height="350" viewBox="0 0 1000 350" fill="none" xmlns="http://www.w3.org/2000/svg">
<path d="M265.346 116.838C265.346 108.561 272.361 102.447 284.054 102.447C296.106 102.447 306.002 108.384 310.679 119.718L334.783 106.582C326.684 87.3375 308.877 76.1813 285.314 76.1813C258.689 76.1813 236.205 93.4521 236.205 118.634C236.205 129.431 240.523 138.426 246.997 144.718C254.554 152.275 266.247 157.311 281.356 161.806C301.861 167.926 307.976 171.702 307.976 179.978C307.976 188.614 299.163 194.905 286.57 194.905C272.361 194.905 261.21 187.53 255.814 175.301L230.627 188.254C238.903 208.4 259.049 221.348 285.674 221.348C318.95 221.348 337.299 202.645 337.299 177.817C337.299 154.072 319.309 143.103 288.012 134.108C272.903 129.791 265.346 125.65 265.346 116.838Z" fill="white"/>
<path d="M412.667 165.947V219.192H440.552V159.468C440.552 139.681 429.578 121.332 405.292 121.332C400.255 121.332 386.943 122.952 378.849 134.468H378.672V72.7646H350.609V219.192H378.672V165.588C378.672 156.41 383.885 147.239 395.938 147.239C407.453 147.239 412.667 155.515 412.667 165.947Z" fill="white"/>
<path d="M455.3 89.6761C455.3 99.2073 463.212 106.942 472.566 106.942C482.462 106.942 490.196 99.2073 490.196 89.6761C490.196 79.9625 482.462 72.2281 472.566 72.2281C463.212 72.2281 455.3 79.9625 455.3 89.6761ZM458.717 219.192V123.134H486.957V219.192H458.717Z" fill="white"/>
<path d="M534.087 173.681H534.806L568.801 219.192H604.238L564.483 167.384L603.16 123.134H567.363L534.087 160.91V72.5875H506.025V219.192H534.087V173.681Z" fill="white"/>
<path d="M682.847 190.228C682.847 172.78 668.816 163.785 645.79 158.931C636.259 156.952 633.196 153.895 633.196 150.114C633.196 146.338 637.337 143.103 643.274 143.103C652.087 143.103 657.483 146.697 660.722 152.275L681.05 140.223C675.113 128.89 662.342 120.796 643.993 120.796C624.566 120.796 607.118 132.848 607.118 151.197C607.118 170.265 623.483 178.358 641.295 182.317C654.603 185.192 656.582 188.431 656.582 191.671C656.582 195.265 652.087 198.686 644.889 198.686C634.28 198.686 626.722 193.827 623.306 186.994L602.618 199.223C609.634 212.535 622.045 221.348 644.53 221.348C668.634 221.348 682.847 208.218 682.847 190.228Z" fill="white"/>
<path d="M757.855 165.947V219.192H785.74V159.468C785.74 139.681 774.766 121.332 750.48 121.332C745.443 121.332 732.131 122.952 724.037 134.468H723.86V72.7646H695.798V219.192H723.86V165.588C723.86 156.41 729.074 147.239 741.126 147.239C752.641 147.239 757.855 155.515 757.855 165.947Z" fill="white"/>
<path d="M833.764 208.936L810.202 266.499H840.238L898.525 123.134H869.561L848.155 177.999L824.228 123.134H793.291L833.764 208.936Z" fill="white"/>
<path d="M933.955 220.989C944.393 220.989 955.544 217.395 962.737 207.14L963.101 207.322V219.192H989.002V159.65C989.002 133.749 971.731 120.973 947.268 120.973C925.502 120.973 910.934 129.608 903.195 143.822L924.601 156.593C929.278 148.14 935.934 143.64 946.007 143.64C956.622 143.64 961.481 149.395 961.481 155.515C961.481 159.468 959.143 162.53 953.924 162.53H944.393C924.961 162.53 901.58 168.285 901.58 192.03V192.39C901.58 210.197 916.69 220.989 933.955 220.989ZM942.054 200.483C935.398 200.483 929.82 197.603 929.82 190.77C929.82 183.213 936.836 179.796 944.393 179.796H961.299V181.957C961.299 192.03 954.466 200.483 942.054 200.483Z" fill="white"/>
<path d="M255.53 246.299C255.53 244.805 256.796 243.7 258.905 243.7C261.082 243.7 262.869 244.773 263.712 246.82L268.067 244.45C266.603 240.976 263.389 238.961 259.134 238.961C254.327 238.961 250.27 242.081 250.27 246.627C250.27 248.575 251.046 250.195 252.218 251.336C253.582 252.7 255.692 253.607 258.421 254.419C262.124 255.523 263.228 256.206 263.228 257.7C263.228 259.258 261.634 260.393 259.363 260.393C256.796 260.393 254.78 259.065 253.806 256.857L249.259 259.195C250.754 262.831 254.395 265.169 259.197 265.169C265.207 265.169 268.52 261.789 268.52 257.31C268.52 253.023 265.27 251.044 259.619 249.419C256.895 248.638 255.53 247.893 255.53 246.299Z" fill="white"/>
<path d="M300.995 247.987H301.027V264.778H306.225V239.351H299.24L292.162 256.398L284.954 239.351H278.162V264.778H283.329V248.117H283.36L290.407 264.778H293.912L300.995 247.987Z" fill="white"/>
<path d="M319.829 264.778L321.714 259.648H332.98L334.896 264.778H340.318L330.579 239.351H324.245L314.537 264.778H319.829ZM327.365 244.45L331.193 254.778H323.532L327.365 244.45Z" fill="white"/>
<path d="M368.184 264.778L362.434 254.841C365.877 253.607 367.664 251.044 367.664 247.403C367.664 242.013 363.606 239.351 358.669 239.351H348.632V264.778H353.893V255.653H357.08L362.341 264.778H368.184ZM358.278 250.784H353.893V244.32H358.247C360.226 244.32 362.341 245.065 362.341 247.502C362.341 249.903 360.226 250.784 358.278 250.784Z" fill="white"/>
<path d="M383.121 264.778H388.351V244.45H395.981V239.351H375.491V244.45H383.121V264.778Z" fill="white"/>
<path d="M422.483 246.299C422.483 244.805 423.748 243.7 425.858 243.7C428.035 243.7 429.821 244.773 430.665 246.82L435.019 244.45C433.555 240.976 430.342 238.961 426.087 238.961C421.279 238.961 417.222 242.081 417.222 246.627C417.222 248.575 417.998 250.195 419.17 251.336C420.535 252.7 422.644 253.607 425.373 254.419C429.076 255.523 430.18 256.206 430.18 257.7C430.18 259.258 428.587 260.393 426.316 260.393C423.748 260.393 421.733 259.065 420.759 256.857L416.212 259.195C417.706 262.831 421.347 265.169 426.149 265.169C432.16 265.169 435.472 261.789 435.472 257.31C435.472 253.023 432.222 251.044 426.571 249.419C423.847 248.638 422.483 247.893 422.483 246.299Z" fill="white"/>
<path d="M443.557 252.081C443.557 259.487 449.239 265.138 456.646 265.138C461.646 265.138 466.614 262.377 468.37 257.57L463.531 255.331C462.427 258.091 459.89 260.039 456.708 260.039C452.198 260.039 449.015 256.435 449.015 252.018C449.015 247.664 452.292 244.091 456.708 244.091C459.89 244.091 462.39 245.877 463.463 248.669L468.271 246.461C466.552 241.69 461.745 238.961 456.745 238.961C449.469 238.961 443.557 244.742 443.557 252.081Z" fill="white"/>
<path d="M482.785 254.482H493.441V264.778H498.701V239.351H493.441V249.388H482.785V239.351H477.524V264.778H482.785V254.482Z" fill="white"/>
<path d="M508.442 252.081C508.442 259.419 514.285 265.169 521.593 265.169C528.9 265.169 534.843 259.357 534.843 251.95C534.843 244.643 529.03 238.961 521.723 238.961C514.416 238.961 508.442 244.773 508.442 252.081ZM513.832 252.049C513.832 247.664 517.275 244.06 521.66 244.06C526.046 244.06 529.483 247.664 529.483 252.049C529.483 256.435 526.046 260.07 521.66 260.07C517.275 260.07 513.832 256.435 513.832 252.049Z" fill="white"/>
<path d="M543.027 252.081C543.027 259.419 548.871 265.169 556.178 265.169C563.485 265.169 569.428 259.357 569.428 251.95C569.428 244.643 563.616 238.961 556.308 238.961C549.001 238.961 543.027 244.773 543.027 252.081ZM548.418 252.049C548.418 247.664 551.86 244.06 556.246 244.06C560.631 244.06 564.069 247.664 564.069 252.049C564.069 256.435 560.631 260.07 556.246 260.07C551.86 260.07 548.418 256.435 548.418 252.049Z" fill="white"/>
<path d="M579.17 239.351V264.778H595.279V259.778H584.399V239.351H579.17Z" fill="white"/>
<path d="M621.65 246.299C621.65 244.805 622.915 243.7 625.025 243.7C627.202 243.7 628.988 244.773 629.832 246.82L634.186 244.45C632.723 240.976 629.509 238.961 625.254 238.961C620.447 238.961 616.389 242.081 616.389 246.627C616.389 248.575 617.165 250.195 618.337 251.336C619.702 252.7 621.811 253.607 624.54 254.419C628.243 255.523 629.348 256.206 629.348 257.7C629.348 259.258 627.754 260.393 625.483 260.393C622.915 260.393 620.9 259.065 619.926 256.857L615.379 259.195C616.874 262.831 620.514 265.169 625.316 265.169C631.327 265.169 634.639 261.789 634.639 257.31C634.639 253.023 631.389 251.044 625.738 249.419C623.014 248.638 621.65 247.893 621.65 246.299Z" fill="white"/>
<path d="M651.105 264.778H656.365V254.482L665.683 239.351H659.678L653.735 249.518L647.855 239.351H641.782L651.105 254.711V264.778Z" fill="white"/>
<path d="M678.383 246.299C678.383 244.805 679.649 243.7 681.758 243.7C683.935 243.7 685.722 244.773 686.565 246.82L690.92 244.45C689.456 240.976 686.243 238.961 681.987 238.961C677.18 238.961 673.123 242.081 673.123 246.627C673.123 248.575 673.899 250.195 675.071 251.336C676.435 252.7 678.545 253.607 681.274 254.419C684.977 255.523 686.081 256.206 686.081 257.7C686.081 259.258 684.487 260.393 682.216 260.393C679.649 260.393 677.633 259.065 676.659 256.857L672.112 259.195C673.607 262.831 677.248 265.169 682.05 265.169C688.06 265.169 691.373 261.789 691.373 257.31C691.373 253.023 688.123 251.044 682.472 249.419C679.748 248.638 678.383 247.893 678.383 246.299Z" fill="white"/>
<path d="M706.374 264.778H711.604V244.45H719.234V239.351H698.744V244.45H706.374V264.778Z" fill="white"/>
<path d="M728.261 239.351V264.778H744.985V259.872H733.459V254.388H743.72V249.45H733.459V244.289H744.923V239.351H728.261Z" fill="white"/>
<path d="M778.016 247.987H778.047V264.778H783.245V239.351H776.261L769.183 256.398L761.975 239.351H755.183V264.778H760.35V248.117H760.381L767.428 264.778H770.933L778.016 247.987Z" fill="white"/>
<mask id="mask0_1_126" style="mask-type:luminance" maskUnits="userSpaceOnUse" x="97" y="14" width="117" height="204">
<path d="M97.3333 14.1354H213.333V217.333H97.3333V14.1354Z" fill="white"/>
</mask>
<g mask="url(#mask0_1_126)">
<path d="M203.776 14.1354C210.484 14.1354 214.495 19.4323 212.698 25.9062L160.958 211.516C159.151 217.995 156.094 218.031 154.167 211.594L98.2968 25.8385C96.3593 19.4115 100.26 14.1354 106.969 14.1354H141.849C148.557 14.1354 159.526 14.1354 166.234 14.1354H203.776Z" fill="#DF2B27"/>
</g>
<path d="M84.0833 65.1875C88.5989 62.3333 93.5468 64.1823 95.0885 69.3125L139.141 216.396C140.677 221.526 138.625 222.854 134.583 219.339L18.0312 118.12C13.9895 114.615 14.3853 109.396 18.8906 106.547L42.3853 91.6406C46.901 88.7813 54.2916 84.0886 58.802 81.224L84.0833 65.1875Z" fill="#DF2B27"/>
<path d="M29.0364 159.495C30.7239 155.724 34.6875 154.807 37.8697 157.453L128.76 233.229C131.937 235.87 131.182 237.599 127.094 237.073L9.05203 221.776C4.96349 221.245 2.99474 217.734 4.67703 213.964L13.4531 194.333C15.1406 190.573 17.901 184.391 19.5885 180.62L29.0364 159.495Z" fill="#DF2B27"/>
<path d="M30.9897 244.068C30.5001 240.859 32.7345 238.562 35.9428 238.948L128.146 250.052C131.354 250.438 131.609 251.901 128.672 253.302L44.3178 293.698C41.3959 295.099 38.6147 293.609 38.1095 290.411L35.547 273.714C35.0522 270.51 34.2449 265.255 33.7501 262.042L30.9897 244.068Z" fill="#DF2B27"/>
<path d="M68.4687 299.583C66.7083 297.646 67.1822 295.094 69.5156 293.917L136.521 260.083C138.865 258.901 139.672 259.786 138.338 262.042L99.5572 327.026C98.2187 329.271 95.6718 329.526 93.9114 327.589L84.7447 317.484C82.9895 315.552 80.0989 312.375 78.3437 310.438L68.4687 299.583Z" fill="#DF2B27"/>
<mask id="mask1_1_126" style="mask-type:luminance" maskUnits="userSpaceOnUse" x="117" y="269" width="38" height="67">
<path d="M117.333 269.333H154.667V335.526H117.333V269.333Z" fill="white"/>
</mask>
<g mask="url(#mask1_1_126)">
<path d="M120.771 328.797C118.719 328.37 117.823 326.479 118.802 324.604L146.708 270.844C147.687 268.969 148.625 269.151 148.812 271.26L153.995 332.052C154.172 334.161 152.635 335.526 150.578 335.094L139.833 332.823C137.771 332.385 134.396 331.682 132.338 331.245L120.771 328.797Z" fill="#DF2B27"/>
</g>
<path d="M165.531 326.224C163.771 326.755 162.302 325.677 162.276 323.849L161.281 271.115C161.24 269.271 162.042 269.021 163.057 270.547L192.271 314.849C193.281 316.38 192.667 318.063 190.912 318.594L181.771 321.349C180.011 321.87 177.13 322.734 175.38 323.271L165.531 326.224Z" fill="#DF2B27"/>
<path d="M200.792 290.813C200.047 292.057 198.63 292.214 197.635 291.172L168.979 261.13C167.979 260.078 168.313 259.51 169.714 259.859L210.229 269.901C211.63 270.25 212.177 271.552 211.443 272.797L207.604 279.286C206.865 280.531 205.667 282.573 204.922 283.823L200.792 290.813Z" fill="#DF2B27"/>
<path d="M204.984 246.937C205.172 248.036 204.427 248.828 203.333 248.719L171.969 245.505C170.87 245.396 170.781 244.891 171.76 244.401L200.167 230.172C201.151 229.682 202.115 230.172 202.292 231.26L203.26 236.901C203.448 237.99 203.76 239.771 203.948 240.859L204.984 246.937Z" fill="#DF2B27"/>
<path d="M195.271 219.318C195.708 220.104 195.359 220.911 194.49 221.12L169.62 227.115C168.76 227.313 168.562 226.953 169.172 226.318L187.094 207.781C187.714 207.141 188.583 207.26 189.016 208.026L191.271 212.109C191.698 212.885 192.411 214.167 192.854 214.943L195.271 219.318Z" fill="#DF2B27"/>
</svg>
